<?xml version="1.0" encoding="utf-8"?>
<!-- Generator: Adobe Illustrator 16.0.0, SVG Export Plug-In . SVG Version: 6.00 Build 0)  -->
<!DOCTYPE svg PUBLIC "-//W3C//DTD SVG 1.1//EN" "http://www.w3.org/Graphics/SVG/1.1/DTD/svg11.dtd">
<svg version="1.1" id="Layer_1" xmlns="http://www.w3.org/2000/svg" xmlns:xlink="http://www.w3.org/1999/xlink" x="0px" y="0px"
	 width="69.667px" height="125px" viewBox="0 0 69.667 125" enable-background="new 0 0 69.667 125" xml:space="preserve">
<g>
	<path fill="#FFFFFF" d="M36.583,96.736c-0.24-0.16-0.26-0.69-0.03-0.9l2.75-0.75c0.02,0.021,0.04,0.15,0.04,0.3v0.271l-1.23,0.3
		c-0.68,0.16-1.23,0.31-1.23,0.32c0,0.02,0.53,0.159,1.17,0.31c0.64,0.15,1.19,0.28,1.23,0.29c0.03,0.021,0.06,0.12,0.06,0.3
		c0,0.28-0.01,0.28-0.13,0.271c-0.08,0-0.67-0.141-1.32-0.32C37.233,96.956,36.653,96.776,36.583,96.736z"/>
	<path fill="#FFFFFF" d="M36.324,97.746c-0.02,0.01,0.25,0.479,0.59,1.04c0.35,0.57,0.63,1.06,0.63,1.11l-0.36,0.38
		c-0.03,0-0.36-0.53-0.74-1.17c-0.72-1.23-0.76-1.33-0.62-1.601c0.09-0.17,0.35-0.33,0.52-0.33c0.09,0,0.53,0.23,1.23,0.63
		c0.61,0.36,1.15,0.681,1.21,0.73l0.11,0.09l-0.2,0.19c-0.18,0.18-0.21,0.189-0.31,0.14c-0.06-0.03-0.54-0.32-1.06-0.64
		C36.793,97.996,36.343,97.736,36.324,97.746z"/>
	<path fill="#FFFFFF" d="M38.813,93.996c-0.15,0.15-2.29,1.35-2.42,1.37l-0.22-0.021c-0.13-0.06-0.26-0.17-0.34-0.29
		c-0.17-0.239-0.12-0.37,0.6-1.6c0.37-0.63,0.7-1.15,0.74-1.16l0.37,0.36c0,0.05-0.28,0.54-0.63,1.109
		c-0.35,0.57-0.62,1.04-0.6,1.051c0.03,0,0.51-0.271,1.08-0.631c0.57-0.35,1.06-0.63,1.08-0.63c0.03,0,0.13,0.08,0.23,0.19
		C38.863,93.906,38.874,93.935,38.813,93.996z"/>
	<path fill="#FFFFFF" d="M34.343,96.295c0-0.439,0.4-0.67,0.78-0.439c0.33,0.189,0.29,0.699-0.06,0.869
		c-0.17,0.08-0.27,0.091-0.42,0.03C34.483,96.685,34.343,96.475,34.343,96.295z"/>
	<path fill="#FFFFFF" d="M33.914,92.956c-0.16-0.61-0.27-1.12-0.26-1.14l0.57,0.01c0.01,0.03,0.15,0.57,0.3,1.2
		c0.25,1.05,0.31,1.239,0.35,1.18c0.01-0.01,0.13-0.5,0.27-1.08c0.13-0.58,0.27-1.12,0.29-1.21c0.04-0.15,0.05-0.15,0.32-0.15
		c0.23,0,0.28,0.011,0.28,0.08c0,0.101-0.59,2.391-0.66,2.57c-0.13,0.31-0.56,0.42-0.88,0.22
		C34.324,94.536,34.354,94.616,33.914,92.956z"/>
	<path fill="#FFFFFF" d="M33.974,99.396c0.4-1.53,0.41-1.561,0.86-1.561c0.22,0,0.28,0.021,0.4,0.12c0.13,0.12,0.17,0.26,0.48,1.42
		c0.18,0.7,0.32,1.31,0.31,1.35c-0.04,0.091-0.47,0.101-0.54,0.011c-0.03-0.03-0.17-0.58-0.32-1.21c-0.15-0.641-0.29-1.17-0.31-1.19
		c-0.02-0.02-0.17,0.521-0.33,1.2l-0.31,1.229l-0.26,0.021c-0.15,0.01-0.28-0.01-0.3-0.03v-0.01
		C33.644,100.725,33.784,100.116,33.974,99.396z"/>
	<path fill="#FFFFFF" d="M32.184,98.425l-0.97,0.59l-0.18-0.18c-0.1-0.1-0.19-0.2-0.19-0.229c0-0.091,2.26-1.391,2.46-1.421
		c0.21-0.029,0.46,0.131,0.58,0.381c0.08,0.17,0.08,0.189,0.01,0.38c-0.1,0.25-1.31,2.3-1.37,2.319
		c-0.03,0.011-0.13-0.069-0.23-0.17c-0.1-0.109-0.17-0.22-0.16-0.25c0.01-0.04,0.3-0.52,0.64-1.069c0.34-0.561,0.62-1.03,0.62-1.051
		l-0.12,0.03C33.213,97.795,32.724,98.095,32.184,98.425z"/>
	<path fill="#FFFFFF" d="M31.253,93.566c0.02,0.01,0.51,0.3,1.07,0.64c0.57,0.35,1.04,0.62,1.05,0.61c0.01-0.021-0.26-0.5-0.61-1.07
		c-0.36-0.57-0.64-1.05-0.64-1.08l0.4-0.38c0.06,0,1.35,2.22,1.4,2.41c0.08,0.27-0.27,0.689-0.57,0.689c-0.07,0-0.28-0.09-0.48-0.2
		c-1.36-0.779-2.03-1.18-2.03-1.229L31.253,93.566z"/>
	<path fill="#FFFFFF" d="M31.753,95.996c-1.53-0.36-1.4-0.3-1.42-0.6c0-0.141,0.01-0.271,0.03-0.29c0.02-0.03,0.63,0.109,1.35,0.3
		c1.55,0.399,1.56,0.41,1.56,0.87s-0.01,0.47-1.49,0.85c-0.7,0.18-1.3,0.33-1.36,0.33c-0.08,0-0.1-0.03-0.1-0.28v-0.279l1.23-0.29
		c0.68-0.171,1.23-0.311,1.23-0.33C32.784,96.255,32.324,96.135,31.753,95.996z"/>
	<path d="M35.124,95.856c-0.38-0.23-0.78,0-0.78,0.439c0,0.18,0.14,0.39,0.3,0.46c0.15,0.061,0.25,0.05,0.42-0.03
		C35.414,96.555,35.454,96.045,35.124,95.856z M33.653,91.816c-0.01,0.02,0.1,0.529,0.26,1.14c0.44,1.66,0.41,1.58,0.58,1.68
		c0.32,0.2,0.75,0.09,0.88-0.22c0.07-0.18,0.66-2.47,0.66-2.57c0-0.069-0.05-0.08-0.28-0.08c-0.27,0-0.28,0-0.32,0.15
		c-0.02,0.09-0.16,0.63-0.29,1.21c-0.14,0.58-0.26,1.07-0.27,1.08c-0.04,0.06-0.1-0.13-0.35-1.18c-0.15-0.63-0.29-1.17-0.3-1.2
		L33.653,91.816z M34.833,97.835c-0.45,0-0.46,0.03-0.86,1.561c-0.19,0.72-0.33,1.329-0.32,1.35v0.01c0.02,0.021,0.15,0.04,0.3,0.03
		l0.26-0.021l0.31-1.229c0.16-0.68,0.31-1.22,0.33-1.2c0.02,0.021,0.16,0.55,0.31,1.19c0.15,0.63,0.29,1.18,0.32,1.21
		c0.07,0.09,0.5,0.08,0.54-0.011c0.01-0.04-0.13-0.649-0.31-1.35c-0.31-1.16-0.35-1.3-0.48-1.42
		C35.113,97.856,35.054,97.835,34.833,97.835z M32.324,94.206c-0.56-0.34-1.05-0.63-1.07-0.64l-0.41,0.39
		c0,0.05,0.67,0.45,2.03,1.229c0.2,0.11,0.41,0.2,0.48,0.2c0.3,0,0.65-0.42,0.57-0.689c-0.05-0.19-1.34-2.41-1.4-2.41l-0.4,0.38
		c0,0.03,0.28,0.51,0.64,1.08c0.35,0.57,0.62,1.05,0.61,1.07C33.363,94.826,32.894,94.555,32.324,94.206z M31.213,99.015l0.97-0.59
		c0.54-0.33,1.03-0.63,1.09-0.67l0.12-0.03c0,0.021-0.28,0.49-0.62,1.051c-0.34,0.55-0.63,1.029-0.64,1.069
		c-0.01,0.03,0.06,0.141,0.16,0.25c0.1,0.101,0.2,0.181,0.23,0.17c0.06-0.02,1.27-2.069,1.37-2.319c0.07-0.19,0.07-0.21-0.01-0.38
		c-0.12-0.25-0.37-0.41-0.58-0.381c-0.2,0.03-2.46,1.33-2.46,1.421c0,0.029,0.09,0.13,0.19,0.229L31.213,99.015z M30.423,97.456
		c0.06,0,0.66-0.15,1.36-0.33c1.48-0.38,1.49-0.39,1.49-0.85s-0.01-0.471-1.56-0.87c-0.72-0.19-1.33-0.33-1.35-0.3
		c-0.02,0.02-0.03,0.149-0.03,0.29c0.02,0.3-0.11,0.239,1.42,0.6c0.57,0.14,1.03,0.26,1.03,0.28c0,0.02-0.55,0.159-1.23,0.33
		l-1.23,0.29v0.279C30.324,97.425,30.343,97.456,30.423,97.456z M41.764,81.675c9.05-7.22,9.1-7.23,7.52-17.15
		c-1.96-12.29-4.09-24.55-6-36.84c-1.57-10.15-1.57-10.27-12.49-12.37C34.434,37.355,38.043,59.186,41.764,81.675z M44.333,21.686
		c2.86,19.75,6.39,39.41,9.31,59.15c0.5,3.35,0.22,7.49-1.36,10.35c-4.55,8.24-9.81,16.091-15.04,23.921
		c-3.23,4.84-7.8,1.479-12.42,1.739c0-7.58,0-14.83,0-22.069c0-26.99-0.02-53.98,0.04-80.97c0-1.95,0.55-3.9,0.84-5.86l0.01,0.03
		c3.78,2.46,8.13,3.72,12.24,5.43C41.943,15.065,43.684,17.235,44.333,21.686z M36.394,95.366c0.13-0.021,2.27-1.22,2.42-1.37
		c0.06-0.061,0.05-0.09-0.11-0.25c-0.1-0.11-0.2-0.19-0.23-0.19c-0.02,0-0.51,0.28-1.08,0.63c-0.57,0.36-1.05,0.631-1.08,0.631
		c-0.02-0.011,0.25-0.48,0.6-1.051c0.35-0.569,0.63-1.06,0.63-1.109l-0.37-0.36c-0.04,0.01-0.37,0.53-0.74,1.16
		c-0.72,1.229-0.77,1.36-0.6,1.6c0.08,0.12,0.21,0.23,0.34,0.29L36.394,95.366z M36.914,98.786c-0.34-0.561-0.61-1.03-0.59-1.04
		c0.02-0.01,0.47,0.25,1,0.57c0.52,0.319,1,0.609,1.06,0.64c0.1,0.05,0.13,0.04,0.31-0.14l0.2-0.19l-0.11-0.09
		c-0.06-0.05-0.6-0.37-1.21-0.73c-0.7-0.399-1.14-0.63-1.23-0.63c-0.17,0-0.43,0.16-0.52,0.33c-0.14,0.271-0.1,0.37,0.62,1.601
		c0.38,0.64,0.71,1.17,0.74,1.17l0.36-0.38C37.543,99.845,37.264,99.356,36.914,98.786z M36.554,95.835
		c-0.23,0.21-0.21,0.74,0.03,0.9c0.07,0.04,0.65,0.22,1.31,0.39c0.65,0.18,1.24,0.32,1.32,0.32c0.12,0.01,0.13,0.01,0.13-0.271
		c0-0.18-0.03-0.279-0.06-0.3c-0.04-0.01-0.59-0.14-1.23-0.29c-0.64-0.15-1.17-0.29-1.17-0.31c0-0.011,0.55-0.16,1.23-0.32l1.23-0.3
		v-0.271c0-0.149-0.02-0.279-0.04-0.3L36.554,95.835z"/>
	<polygon points="24.704,7.945 24.713,7.985 24.693,7.985 	"/>
	<path d="M24.693,7.985c-0.45,2.2-1.28,4.4-1.29,6.6c-0.09,32.09-0.06,64.19-0.06,96.28c0,1.899,0,3.8,0,5.7
		c-0.66,0.109-1.32,0.21-1.99,0.31c-0.39-1.59-1.11-3.17-1.14-4.77c-0.22-14.631-0.33-29.25-0.45-43.891
		c-0.15-17.78-0.14-35.57-0.51-53.36C19.164,10.585,20.374,8.306,24.693,7.985z"/>
</g>
</svg>
