<svg xmlns="http://www.w3.org/2000/svg" xmlns:xlink="http://www.w3.org/1999/xlink" version="1.1" x="0px" y="0px" viewBox="0 0 32 40" enable-background="new 0 0 32 32" xml:space="preserve"><path d="M17,1.734C16.766,1.234,16.5,1,16,1s-0.766,0.234-1,0.734C14.16,3.526,6,14.313,6,21c0,5.523,4.477,10,10,10s10-4.477,10-10  C26,14.313,17.84,3.526,17,1.734z M15.288,5.075c0.28-0.434,0.515-0.797,0.712-1.106c0.197,0.311,0.432,0.673,0.712,1.106  C19.078,8.729,24,16.333,24,21c0,1.866-0.647,3.582-1.723,4.944C22.188,25.971,22.098,26,22,26c-0.553,0-1-0.447-1-1s-0.447-1-1-1  s-1,0.447-1,1s-0.447,1-1,1s-1-0.447-1-1s-0.447-1-1-1s-1,0.447-1,1s-0.447,1-1,1s-1-0.447-1-1s-0.447-1-1-1s-1,0.447-1,1  s-0.447,1-1,1c-0.098,0-0.188-0.029-0.277-0.056C8.647,24.582,8,22.866,8,21C8,16.333,12.922,8.729,15.288,5.075z M11.474,27.59  c0.188-0.106,0.366-0.225,0.526-0.369C12.531,27.7,13.229,28,14,28s1.469-0.3,2-0.779C16.531,27.7,17.229,28,18,28  s1.469-0.3,2-0.779c0.16,0.145,0.339,0.263,0.526,0.369C19.238,28.478,17.68,29,16,29S12.762,28.478,11.474,27.59z"/><text x="0" y="47" fill="#000000" font-size="5px" font-weight="bold" font-family="'Helvetica Neue', Helvetica, Arial-Unicode, Arial, Sans-serif">Created by Timothy Miller</text><text x="0" y="52" fill="#000000" font-size="5px" font-weight="bold" font-family="'Helvetica Neue', Helvetica, Arial-Unicode, Arial, Sans-serif">from the Noun Project</text></svg>