<?xml version="1.0" encoding="utf-8"?>
<!-- Generator: Adobe Illustrator 16.0.0, SVG Export Plug-In . SVG Version: 6.00 Build 0)  -->
<!DOCTYPE svg PUBLIC "-//W3C//DTD SVG 1.1//EN" "http://www.w3.org/Graphics/SVG/1.1/DTD/svg11.dtd">
<svg version="1.1" id="Layer_1" xmlns="http://www.w3.org/2000/svg" xmlns:xlink="http://www.w3.org/1999/xlink" x="0px" y="0px"
	 width="595.281px" height="841.891px" viewBox="0 0 595.281 841.891" enable-background="new 0 0 595.281 841.891"
	 xml:space="preserve">
<g>
	<path fill="#1A1A18" stroke="#000000" stroke-width="0.4252" stroke-miterlimit="10" d="M582.283,336.062
		c-41.592-120.376-172.166-186.963-290.941-148.57l-17.196,6.398l-28.994,11.798l-1.4,1c-12.397,4.199-24.395,9.598-35.593,15.797
		l-45.191,9.998c-1.2,0.2-2.6,0.6-3.799,1c-0.4,0-0.8,0.199-1,0.199c-1.2,0.2-2.399,0.601-3.599,1c-0.6-0.2-1.2-0.2-1.8,0
		c-1,0.2-2,0.6-3.199,0.8c-0.6,0.2-1.399,0.4-2,0.601c-1.8,0.6-3.399,0.999-5.199,1.6c-8.199,2.599-15.997,5.799-23.595,9.598
		c-39.592,18.996-72.186,50.189-93.381,89.981c-0.8,1.601-1.6,3-2.399,4.6C-3.199,394.85-7.199,455.638,11.998,512.827
		c1,2.999,2,5.799,3,8.599v0.199c3.199,8.398,6.999,16.597,10.998,24.396c0.6,1.199,1.2,2.199,1.8,3.399
		c0.8,1.399,1.6,2.999,2.399,4.398c39.592,68.986,112.178,111.378,188.162,111.378c18.596,0,37.593-2.6,56.189-7.998
		c2.599-0.8,5.199-1.6,7.798-2.399l36.992-9.798c20.195,0.8,40.191-1.4,59.789-5.999c5.398-1.2,10.797-2.8,15.996-4.6l4-1.399
		c14.396-1.8,28.793-4.799,42.791-9.398c56.787-18.396,102.779-57.788,129.373-111.178
		C598.88,457.838,602.679,395.051,582.283,336.062z M319.537,640.802h-0.4l-7.6,1.999c38.793-19.796,70.387-51.789,90.582-92.182
		c26.395-52.989,30.395-113.577,10.998-170.966c-31.594-93.98-118.376-153.769-209.558-152.369l5.799-1.199l0.6-0.2
		c0.6-0.4,1.399-0.8,2-1l46.19-10.198l0,0l10.198-2.199l0,0c17.396-3.399,34.993-4.599,52.188-3.6
		c85.984,4.8,164.367,62.188,193.961,147.971c18.998,54.989,15.398,113.178-9.996,164.167
		c-24.797,49.59-67.387,86.183-119.977,103.18c-3.4,0.999-6.799,2.199-10.197,2.999l-14.598,3.799l-1.801-0.199v0.6l-16.396,4.399
		l-19.596,5.198C320.935,640.802,320.136,640.802,319.537,640.802z M374.925,629.803c3.398-1,6.998-2,10.396-3
		c53.391-17.196,96.582-54.389,121.576-104.578c3.199-6.399,5.998-12.998,8.598-19.597c8.799-23.396,13.398-47.79,13.799-72.585
		c0.199-24.796-3.801-49.79-12.199-73.985c-0.799-2.6-1.799-5.199-2.799-7.599c-0.199-0.4-0.199-0.8-0.4-1.2
		c-1-2.399-1.998-4.799-2.998-7.198c-0.201-0.399-0.4-0.8-0.602-1.399c-0.998-2.399-2.199-4.6-3.199-6.999
		c-0.199-0.399-0.398-0.6-0.6-1c-1.199-2.399-2.398-4.599-3.6-6.998c0,0,0-0.2-0.199-0.2c-1.199-2.399-2.6-4.599-3.799-6.799
		c-0.201-0.399-0.4-0.8-0.6-1.199c-1.201-2.2-2.6-4.199-4-6.399c-0.199-0.399-0.6-0.8-0.799-1.199
		c-1.4-2.199-2.801-4.199-4.199-6.199c-0.201-0.399-0.4-0.6-0.602-0.999c-1.398-2-2.799-4-4.398-5.999c-0.199-0.2-0.199-0.2-0.4-0.4
		c-1.6-1.999-3.199-3.999-4.799-5.998c-0.199-0.4-0.6-0.8-0.799-1c-1.6-1.8-3.199-3.8-4.799-5.599c-0.4-0.4-0.6-0.8-1-1.2
		c-1.6-1.8-3.199-3.6-5-5.398c-0.199-0.2-0.6-0.601-0.799-0.801c-1.6-1.799-3.4-3.398-5-4.999c-0.199-0.199-0.398-0.399-0.6-0.6
		c-1.799-1.8-3.6-3.399-5.398-4.999c-0.4-0.399-0.801-0.6-1.199-1c-1.801-1.6-3.6-3.199-5.4-4.599c-0.398-0.4-0.799-0.6-1.199-1
		c-1.799-1.6-3.799-2.999-5.6-4.599c-0.398-0.2-0.6-0.4-0.998-0.8c-1.801-1.4-3.6-2.8-5.4-3.999c-0.398-0.2-0.6-0.4-0.799-0.601
		c-2-1.399-4-2.799-6-3.999c-0.398-0.399-0.998-0.6-1.398-1c-2-1.199-4-2.6-6-3.799c-0.398-0.2-0.998-0.6-1.398-0.8
		c-2-1.2-4-2.399-6.199-3.6c-0.4-0.2-0.801-0.399-1-0.6c-2-1-3.799-2-5.799-3.199c-0.4-0.2-0.799-0.4-1.199-0.601
		c-2-0.999-4.199-1.999-6.398-2.999c-0.6-0.2-1-0.6-1.6-0.8c-2-1-4.199-1.8-6.4-2.8c-0.6-0.199-0.998-0.399-1.6-0.6
		c-2.199-0.8-4.398-1.8-6.598-2.6c-0.4-0.199-0.801-0.199-1.199-0.399c-2-0.8-4-1.4-6.199-2.2c-0.4-0.199-1-0.399-1.4-0.399
		c-2.199-0.8-4.398-1.399-6.598-2c-0.6-0.199-1.201-0.399-1.801-0.6c-2.199-0.6-4.398-1.199-6.598-1.8
		c-0.6-0.2-1.201-0.2-1.801-0.399c-2.199-0.601-4.598-1-6.998-1.6c-0.4,0-0.799-0.2-1-0.2c-2.199-0.4-4.398-0.8-6.398-1.2
		c-0.6,0-1-0.199-1.6-0.199c-2.199-0.4-4.6-0.601-6.998-1c-0.6,0-1.201-0.2-1.801-0.2c-2.398-0.2-4.598-0.6-6.998-0.6
		c-0.6,0-1.199,0-1.799-0.2c-2.4-0.2-4.6-0.4-7-0.4c-0.398,0-0.799,0-1,0c-2.199,0-4.598-0.199-6.797-0.199c-0.4,0-0.602,0-1,0
		c-0.201,0-0.6,0-0.801,0c-0.6,0-1,0-1.6,0c-1.199,0-2.199,0-3.398,0c-0.6,0-1,0-1.6,0c-1.201,0-2.201,0-3.4,0.199
		c-0.6,0-1.2,0-1.6,0.2c-1.2,0-2.2,0.2-3.399,0.2c-0.6,0-1.2,0-1.8,0.2c-1,0-2.2,0.2-3.199,0.2c-0.6,0-1.2,0.199-1.8,0.199
		c-1,0.2-2.199,0.2-3.199,0.4c-0.6,0-1.4,0.2-2,0.2c-1,0.199-2,0.199-3,0.399c-0.8,0.2-1.4,0.2-2.2,0.4
		c-1,0.199-1.799,0.199-2.799,0.399c-1.2,0.2-2.6,0.4-3.799,0.6c-0.4,0-0.8,0.2-1.2,0.2l0,0l0,0l0,0
		c-3.399,0.6-6.799,1.399-10.198,2.199l-35.393,7.799c8.598-3.999,17.396-7.599,26.395-10.598l3.2-1l-0.2-0.6l4.199-1.2
		c54.788-15.597,113.378-9.198,164.767,18.196c51.391,27.194,90.383,72.785,109.379,127.774
		c19.195,55.789,16.195,115.177-8.6,167.367c-2.998,6.599-6.398,12.797-10.197,18.996c-1.799,2.999-3.799,5.998-5.799,8.998
		c-1,1.399-2,2.999-3,4.398c-24.795,34.993-59.588,61.588-100.779,76.585c-1,0.2-2,0.2-3,0.4l-4.598,1.399
		c-5.199,1.6-10.398,3.199-15.797,4.399c-14.998,3.599-30.395,5.599-45.791,5.998L374.925,629.803z M414.716,626.604
		c2-0.8,3.799-1.6,5.799-2.6c0.4-0.2,0.6-0.4,1-0.4c2.799-1.199,5.398-2.6,8.199-3.999c0.199,0,0.398-0.2,0.6-0.2
		c2.799-1.399,5.398-2.999,8.197-4.599h0.201c2.6-1.6,5.199-3.199,7.797-4.799c0.201-0.2,0.602-0.4,0.801-0.4
		c2.4-1.6,4.799-3.199,7.199-4.999c0.398-0.2,0.6-0.399,1-0.8c2.398-1.6,4.598-3.399,6.797-5.199c0.4-0.199,0.801-0.6,1-0.8
		c2.201-1.799,4.4-3.599,6.6-5.398c0.4-0.2,0.6-0.6,1-0.8c2.199-2,4.398-3.799,6.398-5.799c0.199-0.2,0.4-0.4,0.6-0.6
		c2.199-2,4.398-4.199,6.398-6.399l0.201-0.199c2.199-2.2,4.199-4.399,6.197-6.799c0.201-0.2,0.201-0.2,0.4-0.4
		c2-2.199,3.799-4.599,5.799-6.998c0.199-0.2,0.4-0.601,0.6-0.8c1.801-2.2,3.6-4.6,5.199-6.999c0.199-0.399,0.6-0.8,0.801-1.199
		c1.6-2.399,3.398-4.8,4.998-7.199c0.199-0.399,0.6-0.8,0.801-1.199c1.6-2.399,3.199-4.999,4.598-7.398c0.201-0.4,0.4-0.8,0.6-1
		c1.6-2.6,3-5.199,4.4-7.799c0.199-0.199,0.199-0.6,0.4-0.8c1.398-2.799,2.998-5.599,4.199-8.398
		c25.193-52.789,28.193-112.978,8.797-169.565c-19.195-55.789-58.588-101.979-110.777-129.574c-1.799-1-3.799-2-5.799-2.999
		c-0.6-0.2-1.199-0.601-1.799-0.8c-1.4-0.601-2.801-1.4-4.199-2c-0.6-0.2-1.201-0.6-2-0.8c-1.4-0.6-3-1.399-4.398-2
		c-0.4-0.199-1-0.399-1.4-0.6c-2-0.8-3.799-1.6-5.799-2.399c-0.4-0.2-1-0.4-1.4-0.6c-1.6-0.601-2.998-1.2-4.598-1.6
		c-0.602-0.2-1.4-0.4-2-0.8c-1.4-0.4-2.801-1-4.199-1.4c-0.6-0.199-1.201-0.399-1.801-0.6c-1.998-0.6-3.799-1.2-5.799-1.8h-0.199
		c-2-0.6-4-1-5.998-1.6c-0.602-0.2-1.201-0.399-2-0.399c-1.4-0.4-2.801-0.601-4.199-1c-0.801-0.2-1.4-0.4-2.199-0.4
		c-1.6-0.399-3-0.6-4.6-1c-0.6-0.199-1-0.199-1.6-0.399c-2-0.4-4-0.8-6-1c-0.6,0-0.998-0.2-1.6-0.2
		c-1.6-0.199-2.998-0.399-4.598-0.6c-0.801,0-1.4-0.2-2.199-0.2c-1.4-0.199-2.801-0.399-4.199-0.399c-0.602,0-1.4-0.2-2-0.2
		c-1.801-0.2-3.799-0.399-5.6-0.399c-0.199,0-0.6,0-0.799,0c-2-0.2-4-0.2-6-0.2c-0.6,0-1.398,0-2,0c-1.398,0-2.799,0-4.199,0
		c-0.398,0-0.799,0-1.199,0s-0.799,0-1.199,0c-1.199,0-2.199,0-3.4,0c-0.799,0-1.6,0-2.398,0c-1.199,0-2.4,0-3.6,0.2
		c-0.799,0-1.4,0-2.199,0.199c-1.801,0.2-3.799,0.2-5.599,0.4c-0.6,0-1,0.2-1.6,0.2c-1.4,0.199-2.799,0.199-4.199,0.399
		c-0.8,0-1.6,0.2-2.399,0.2c-1.2,0.2-2.2,0.2-3.399,0.399c-0.8,0.2-1.6,0.2-2.6,0.4c-1,0.2-2.199,0.399-3.199,0.6
		c-0.8,0.2-1.6,0.2-2.6,0.4c-1.2,0.199-2.199,0.399-3.399,0.6c-0.8,0.2-1.6,0.4-2.399,0.4c-0.4,0-0.8,0.199-1.2,0.199l5.399-2.199
		l16.997-6.199c116.776-37.592,244.751,27.795,285.542,145.971c19.996,57.988,16.197,119.576-10.598,173.365
		c-26.193,52.39-71.186,90.982-126.975,108.979C432.113,622.605,423.515,624.804,414.716,626.604z M143.771,241.882
		c1.6-0.601,3.399-1,4.999-1.601c0.6-0.199,1.4-0.399,2-0.6c1-0.399,2-0.6,3.2-0.8c0.6-0.2,1-0.2,1.6-0.399
		c1.2-0.4,2.399-0.601,3.599-1c0.2,0,0.4-0.2,0.6-0.2c103.779-25.195,213.356,36.593,249.351,143.971
		c18.996,56.189,14.996,115.777-10.799,167.567c-24.395,48.989-65.986,85.183-116.977,101.979
		c-97.78,32.393-204.159-15.197-251.949-107.778c37.592,70.386,110.378,113.776,186.363,113.776c20.795,0,41.792-3.199,62.188-9.998
		c50.79-16.796,92.182-52.589,116.375-100.979c25.396-50.79,28.994-108.978,10.398-163.967
		C367.326,271.275,249.35,209.887,141.972,245.28c-47.191,15.397-86.183,47.591-110.778,90.782
		C55.989,291.071,95.581,257.878,143.771,241.882z M142.771,247.88c105.979-34.793,222.355,25.795,259.548,134.973
		c18.396,54.189,14.797,111.578-10.199,161.769c-23.795,47.79-64.586,83.183-114.776,99.58c-20.396,6.599-40.992,9.798-61.388,9.798
		c-86.183,0-168.166-56.589-198.16-144.771C-0.6,455.039,3,397.65,27.995,347.46C51.99,299.87,92.582,264.476,142.771,247.88z"/>
	
		<rect x="364.791" y="476.788" transform="matrix(-0.4221 0.9065 -0.9065 -0.4221 986.0759 393.5932)" fill="#1A1A18" width="5.598" height="68.589"/>
	
		<rect x="332.121" y="385.641" transform="matrix(-0.9574 0.2887 -0.2887 -0.9574 828.3892 654.7023)" fill="#1A1A18" width="67.585" height="5.599"/>
	
		<rect x="269.138" y="578.016" transform="matrix(-0.9485 0.3168 -0.3168 -0.9485 722.9031 1101.3032)" fill="#1A1A18" width="5.599" height="62.788"/>
	
		<rect x="114.024" y="603.648" transform="matrix(-0.4016 0.9158 -0.9158 -0.4016 756.6877 718.4763)" fill="#1A1A18" width="59.187" height="5.599"/>
	
		<rect x="19.794" y="499.429" transform="matrix(-0.9607 0.2777 -0.2777 -0.9607 235.5118 971.103)" fill="#1A1A18" width="58.39" height="5.599"/>
	
		<rect x="52.233" y="345.444" transform="matrix(-0.4158 0.9095 -0.9095 -0.4158 418.3641 479.92)" fill="#1A1A18" width="5.599" height="57.788"/>
	<path fill="#1A1A18" stroke="#000000" stroke-width="0.4252" stroke-miterlimit="10" d="M79.184,491.632
		c19.796,58.987,73.785,96.58,130.974,96.58c13.597,0,27.194-2.199,40.592-6.599c32.994-10.998,59.787-34.394,75.584-65.986
		c16.797-33.594,19.197-71.986,7-108.379c-24.396-72.585-101.38-112.978-171.366-89.782c-32.993,10.998-59.988,34.394-75.785,65.987
		C69.586,417.046,66.986,455.438,79.184,491.632z M88.782,384.652c15.397-30.993,41.792-53.789,73.985-64.587
		c13.198-4.398,26.595-6.398,39.792-6.398c55.789,0,108.778,36.992,128.175,94.581c11.998,35.593,9.598,73.186-6.799,106.179
		c-15.396,30.994-41.792,53.789-73.985,64.587c-68.586,22.796-143.971-16.797-167.966-88.182
		C69.986,455.238,72.385,417.646,88.782,384.652z"/>
	<path fill="#1A1A18" stroke="#000000" stroke-width="0.4252" stroke-miterlimit="10" d="M210.958,565.616
		c11.398,0,22.996-1.8,34.193-5.599c27.794-9.198,50.39-28.994,63.786-55.589c13.998-28.194,16.197-60.588,6-91.182
		c-20.596-61.388-85.383-95.381-144.371-75.785c-27.995,9.198-50.59,28.994-63.788,55.589
		c-13.997,28.194-16.196,60.588-5.999,91.182C117.576,533.823,162.967,565.616,210.958,565.616z M109.178,394.451
		c12.997-25.995,34.993-45.191,61.987-54.189c57.588-18.996,120.776,14.197,140.771,73.985c9.998,29.794,7.998,61.388-5.799,88.981
		c-12.997,25.995-34.993,45.191-61.987,54.189c-57.588,18.996-120.776-14.197-140.771-73.985
		C93.381,453.439,95.581,421.844,109.178,394.451z"/>
</g>
<path fill="#1A1A18" d="M38.192,459.838c5.399-9.599,10.798-18.996,15.997-28.595c0.4-0.8,0.2-1.999-0.6-2.399
	c-0.8-0.399-1.8-0.199-2.399,0.601c-4.399,7.598-8.599,15.396-12.998,22.995c-3.599-7.398-7.398-14.797-10.998-21.996
	c-0.4-0.999-1.399-1.199-2.399-0.8c-0.8,0.4-1.2,1.6-0.8,2.399C28.994,441.241,33.593,450.439,38.192,459.838z"/>
<path fill="#1A1A18" d="M365.527,462.437c3.799-7.599,7.598-15.197,11.396-22.596c4.801,7.998,9.6,15.997,14.398,23.995
	c0.6,1,1.6,1.2,2.6,0.8c0.799-0.6,1.199-1.6,0.6-2.6c-6-9.998-11.998-19.996-17.797-29.794c-4.799,9.599-9.598,18.996-14.396,28.595
	c-0.4,0.8-0.201,1.999,0.799,2.399C363.927,463.636,365.126,463.437,365.527,462.437z"/>
<path fill="#1A1A18" d="M205.159,610.407c-2.799,0-5.199,1-6.799,2.8c-1.799,1.8-2.799,4.199-2.799,6.998c0,2.8,1.2,5.199,3,7.199
	c1.8,1.8,4.199,2.999,6.999,2.999c2.6,0,4.999-1,6.799-2.6c1.799-1.8,2.799-4.199,2.799-6.998c0-2.8-1.2-5.199-3-7.199
	C210.358,611.607,207.958,610.607,205.159,610.407z M209.558,625.005c-1,1.199-2.599,1.799-4.199,1.799c-1.8,0-3.2-0.8-4.399-1.999
	c-1.2-1.2-1.799-2.8-1.799-4.399c0-1.8,0.6-3.199,1.799-4.399c1-1.199,2.6-1.799,4.399-1.799c1.6,0,3.199,0.8,4.199,1.999
	c1.2,1.2,1.8,2.8,1.8,4.6C211.357,622.405,210.758,623.804,209.558,625.005z"/>
<path fill="#1A1A18" d="M182.363,485.432c-3.799-0.2-7.599-0.6-11.397-0.8c-3.799-0.2-7.799-0.6-11.598-0.8
	c-0.4,0-3.799,2.399-4,3.6c-0.2,1.199,2.6,4.199,2.799,4.199c3.799,0.399,7.799,0.6,11.598,0.999c3.799,0.2,7.599,0.601,11.598,0.8
	c0.4,0,3.799-2.399,3.799-3.799C185.363,488.632,182.563,485.633,182.363,485.432z"/>
<path fill="#1A1A18" d="M168.166,421.645c3.799,0.199,7.398,0.199,11.198,0.399s7.398,0.2,11.198,0.4c0.2,0,3.6-2.399,3.799-3.8
	c0-1.199-2.6-3.999-2.799-3.999c-3.799-0.2-7.398-0.2-11.198-0.2c-3.599-0.199-7.398-0.199-11.198-0.399
	c-0.2,0-3.599,2.399-3.799,3.6C165.367,418.845,167.966,421.645,168.166,421.645z"/>
<path fill="#1A1A18" d="M235.353,455.438c2-0.8,4-3.599,4-3.799c0.6-5.399,1.2-10.998,1.6-16.396c0.6-5.399,1-10.798,1.6-16.397
	c-2.6,2.399-6.799,5.399-7.798,7.398c-1.2,2.4-0.8,8.398-1.2,12.598s-2,9.998-1.4,12.598
	C232.753,453.439,235.353,455.438,235.353,455.438z"/>
<path fill="#1A1A18" d="M191.562,423.644c-0.6,4-1,8.199-1.6,12.198c-0.6,4.199-1.2,8.198-1.6,12.397c0,0.2,2.199,3.6,2.999,3.799
	c1,0,4-3.199,4-3.399c0.6-4.199,1-8.198,1.6-12.397c0.6-4.199,1-8.198,1.6-12.397c0-0.399-1-1.6-3-3.6
	C192.961,422.245,191.562,423.445,191.562,423.644z"/>
<path fill="#1A1A18" d="M234.753,496.631c1.2-1,1.2-11.198,1.799-16.797c0.6-5.599,2.6-13.197,1.8-16.797
	c-0.6-2-3-4.199-3.199-4.199c-2.6,2.399-4,3.6-4,3.799c-0.4,4.199-1,8.398-1.399,12.598s-2,9.998-1.4,12.798
	C229.554,492.431,234.753,496.631,234.753,496.631z"/>
<path fill="#1A1A18" d="M162.967,456.438c1.8,1,7.798,0.399,11.598,0.6s9.398,1.4,11.598,0.601c0.8-0.4,3.399-3,3.599-3.8
	c0-0.8-1.799-3.6-2.599-3.999c-2-1-7.799-0.4-11.598-0.6c-3.799-0.2-7.798-0.4-11.598-0.601c-1,1-3.399,2.8-3.599,3.6
	C160.368,453.039,162.367,456.038,162.967,456.438z"/>
<path fill="#1A1A18" d="M154.169,485.633c1,0.2,3.999-3,4.199-3.399c0.6-3.999,1.2-8.198,1.8-12.397
	c0.6-4.199,1.2-8.198,1.799-12.197c0-0.4-1-1.601-3-3.8c-2.599,2-3.999,2.999-3.999,3.399c-0.6,3.999-1.2,8.198-1.8,12.397
	c-0.6,3.999-1.2,8.198-1.799,12.197C151.169,482.033,153.169,485.432,154.169,485.633z"/>
<path fill="#1A1A18" d="M262.347,442.441c0.6-0.6,0.4-7.398,0.6-11.397c0.2-3.8-0.2-10.998,0.6-11.798c0.2-0.2,3.2,0,4.799,0
	s4.599,0.199,4.799,0c0,0-2.2-3.8-3.199-4.399c-0.4-0.2-2,0-3,0s-2.2,0-3.199,0c-1.4,0-2.8,0-4,0c0,1.399-0.2,2.8-0.2,4.399
	c-0.2,3.999-0.4,7.998-0.6,11.798c-0.2,3.799-1.399,10.598-0.6,11.397C258.548,442.441,261.947,442.641,262.347,442.441z"/>
<path fill="#1A1A18" d="M256.148,424.245c0.4-0.4,0.8-6.199,0.2-6.599c-0.2-0.2-3.399,0-4.999,0c-0.2,2.199-0.8,6.198-0.2,6.599
	C251.549,424.445,255.949,424.644,256.148,424.245z"/>
<path fill="#1A1A18" d="M267.746,438.442c-1.2,0-3.799-0.2-3.999,0c-0.2,0.199-0.2,2.6-0.2,3.999c1.6,0,3.799,0.399,4.599,0
	c1-0.4,3.599-3.8,3.599-3.8C271.745,438.442,269.146,438.442,267.746,438.442z"/>
</svg>
