<?xml version="1.0" encoding="utf-8"?>
<!-- Generator: Adobe Illustrator 21.0.0, SVG Export Plug-In . SVG Version: 6.00 Build 0)  -->
<svg version="1.1" id="Laag_1" xmlns="http://www.w3.org/2000/svg" xmlns:xlink="http://www.w3.org/1999/xlink" x="0px" y="0px"
	 viewBox="0 0 100 82" style="enable-background:new 0 0 100 82;" xml:space="preserve">
<style type="text/css">
	.st0{fill:#1A1A18;stroke:#000000;stroke-width:0.4252;stroke-miterlimit:10;}
	.st1{fill:#1A1A18;}
</style>
<g>
	<path class="st0" d="M97.4,26.9C90.4,6.9,68.7-4.2,49,2.2l-2.9,1.1l-4.8,2L41,5.4C39,6.1,37,7,35.1,8l-7.5,1.7
		c-0.2,0-0.4,0.1-0.6,0.2c-0.1,0-0.1,0-0.2,0c-0.2,0-0.4,0.1-0.6,0.2c-0.1,0-0.2,0-0.3,0c-0.2,0-0.3,0.1-0.5,0.1
		c-0.1,0-0.2,0.1-0.3,0.1c-0.3,0.1-0.6,0.2-0.9,0.3c-1.4,0.4-2.7,1-3.9,1.6c-6.6,3.2-12,8.3-15.5,15c-0.1,0.3-0.3,0.5-0.4,0.8
		c-4.4,8.8-5,18.9-1.8,28.4c0.2,0.5,0.3,1,0.5,1.4v0c0.5,1.4,1.2,2.8,1.8,4.1C4.9,62,5,62.2,5.1,62.4c0.1,0.2,0.3,0.5,0.4,0.7
		c6.6,11.5,18.7,18.5,31.3,18.5c3.1,0,6.3-0.4,9.3-1.3c0.4-0.1,0.9-0.3,1.3-0.4l6.2-1.6c3.4,0.1,6.7-0.2,9.9-1
		c0.9-0.2,1.8-0.5,2.7-0.8l0.7-0.2c2.4-0.3,4.8-0.8,7.1-1.6c9.4-3.1,17.1-9.6,21.5-18.5C100.1,47.1,100.7,36.7,97.4,26.9z
		 M53.6,77.6L53.6,77.6l-1.3,0.3c6.5-3.3,11.7-8.6,15.1-15.3c4.4-8.8,5.1-18.9,1.8-28.4C64,18.5,49.5,8.6,34.4,8.8l1-0.2l0.1,0
		c0.1-0.1,0.2-0.1,0.3-0.2l7.7-1.7l0,0l1.7-0.4l0,0C48,5.8,51,5.6,53.8,5.7c14.3,0.8,27.3,10.3,32.3,24.6c3.2,9.1,2.6,18.8-1.7,27.3
		c-4.1,8.2-11.2,14.3-20,17.2c-0.6,0.2-1.1,0.4-1.7,0.5l-2.4,0.6l-0.3,0V76l-2.7,0.7L54,77.6C53.9,77.6,53.7,77.6,53.6,77.6z
		 M62.9,75.7c0.6-0.2,1.2-0.3,1.7-0.5c8.9-2.9,16.1-9,20.2-17.4c0.5-1.1,1-2.2,1.4-3.3c1.5-3.9,2.2-7.9,2.3-12.1
		c0-4.1-0.6-8.3-2-12.3c-0.1-0.4-0.3-0.9-0.5-1.3c0-0.1,0-0.1-0.1-0.2c-0.2-0.4-0.3-0.8-0.5-1.2c0-0.1-0.1-0.1-0.1-0.2
		c-0.2-0.4-0.4-0.8-0.5-1.2c0-0.1-0.1-0.1-0.1-0.2c-0.2-0.4-0.4-0.8-0.6-1.2c0,0,0,0,0,0c-0.2-0.4-0.4-0.8-0.6-1.1
		c0-0.1-0.1-0.1-0.1-0.2c-0.2-0.4-0.4-0.7-0.7-1.1c0-0.1-0.1-0.1-0.1-0.2c-0.2-0.4-0.5-0.7-0.7-1c0-0.1-0.1-0.1-0.1-0.2
		c-0.2-0.3-0.5-0.7-0.7-1c0,0,0,0-0.1-0.1c-0.3-0.3-0.5-0.7-0.8-1c0-0.1-0.1-0.1-0.1-0.2c-0.3-0.3-0.5-0.6-0.8-0.9
		c-0.1-0.1-0.1-0.1-0.2-0.2c-0.3-0.3-0.5-0.6-0.8-0.9c0,0-0.1-0.1-0.1-0.1c-0.3-0.3-0.6-0.6-0.8-0.8c0,0-0.1-0.1-0.1-0.1
		c-0.3-0.3-0.6-0.6-0.9-0.8c-0.1-0.1-0.1-0.1-0.2-0.2c-0.3-0.3-0.6-0.5-0.9-0.8c-0.1-0.1-0.1-0.1-0.2-0.2c-0.3-0.3-0.6-0.5-0.9-0.8
		c-0.1,0-0.1-0.1-0.2-0.1c-0.3-0.2-0.6-0.5-0.9-0.7c-0.1,0-0.1-0.1-0.1-0.1c-0.3-0.2-0.7-0.5-1-0.7c-0.1-0.1-0.2-0.1-0.2-0.2
		c-0.3-0.2-0.7-0.4-1-0.6c-0.1,0-0.2-0.1-0.2-0.1c-0.3-0.2-0.7-0.4-1-0.6c-0.1,0-0.1-0.1-0.2-0.1c-0.3-0.2-0.6-0.3-1-0.5
		c-0.1,0-0.1-0.1-0.2-0.1C67.7,9,67.4,8.8,67,8.7c-0.1,0-0.2-0.1-0.3-0.1c-0.3-0.2-0.7-0.3-1.1-0.5C65.6,8,65.5,8,65.4,8
		c-0.4-0.1-0.7-0.3-1.1-0.4c-0.1,0-0.1,0-0.2-0.1c-0.3-0.1-0.7-0.2-1-0.4C63,7.1,62.9,7,62.8,7c-0.4-0.1-0.7-0.2-1.1-0.3
		c-0.1,0-0.2-0.1-0.3-0.1c-0.4-0.1-0.7-0.2-1.1-0.3c-0.1,0-0.2,0-0.3-0.1c-0.4-0.1-0.8-0.2-1.2-0.3c-0.1,0-0.1,0-0.2,0
		c-0.4-0.1-0.7-0.1-1.1-0.2c-0.1,0-0.2,0-0.3,0c-0.4-0.1-0.8-0.1-1.2-0.2c-0.1,0-0.2,0-0.3,0c-0.4,0-0.8-0.1-1.2-0.1
		c-0.1,0-0.2,0-0.3,0c-0.4,0-0.8-0.1-1.2-0.1c-0.1,0-0.1,0-0.2,0c-0.4,0-0.8,0-1.1,0c-0.1,0-0.1,0-0.2,0c0,0-0.1,0-0.1,0
		c-0.1,0-0.2,0-0.3,0c-0.2,0-0.4,0-0.6,0c-0.1,0-0.2,0-0.3,0c-0.2,0-0.4,0-0.6,0c-0.1,0-0.2,0-0.3,0c-0.2,0-0.4,0-0.6,0
		c-0.1,0-0.2,0-0.3,0c-0.2,0-0.4,0-0.5,0c-0.1,0-0.2,0-0.3,0c-0.2,0-0.4,0-0.5,0.1c-0.1,0-0.2,0-0.3,0c-0.2,0-0.3,0-0.5,0.1
		c-0.1,0-0.2,0-0.4,0.1c-0.2,0-0.3,0-0.5,0.1c-0.2,0-0.4,0.1-0.6,0.1c-0.1,0-0.1,0-0.2,0l0,0l0,0l0,0c-0.6,0.1-1.1,0.2-1.7,0.4
		l-5.9,1.3c1.4-0.7,2.9-1.3,4.4-1.8l0.5-0.2l0-0.1L43,5.3c9.1-2.6,18.9-1.5,27.4,3c8.5,4.5,15,12.1,18.2,21.3
		c3.2,9.3,2.7,19.2-1.4,27.8c-0.5,1.1-1.1,2.1-1.7,3.2c-0.3,0.5-0.6,1-1,1.5c-0.2,0.2-0.3,0.5-0.5,0.7c-4.1,5.8-9.9,10.2-16.8,12.7
		c-0.2,0-0.3,0-0.5,0.1L66,75.9c-0.9,0.3-1.7,0.5-2.6,0.7c-2.5,0.6-5.1,0.9-7.6,1L62.9,75.7z M69.5,75.2c0.3-0.1,0.6-0.3,1-0.4
		c0.1,0,0.1-0.1,0.2-0.1c0.5-0.2,0.9-0.4,1.4-0.7c0,0,0.1,0,0.1,0c0.5-0.2,0.9-0.5,1.4-0.8h0c0.4-0.3,0.9-0.5,1.3-0.8
		c0,0,0.1-0.1,0.1-0.1c0.4-0.3,0.8-0.5,1.2-0.8c0.1,0,0.1-0.1,0.2-0.1c0.4-0.3,0.8-0.6,1.1-0.9c0.1,0,0.1-0.1,0.2-0.1
		c0.4-0.3,0.7-0.6,1.1-0.9c0.1,0,0.1-0.1,0.2-0.1c0.4-0.3,0.7-0.6,1.1-1c0,0,0.1-0.1,0.1-0.1c0.4-0.3,0.7-0.7,1.1-1.1l0,0
		c0.4-0.4,0.7-0.7,1-1.1c0,0,0,0,0.1-0.1c0.3-0.4,0.6-0.8,1-1.2c0,0,0.1-0.1,0.1-0.1c0.3-0.4,0.6-0.8,0.9-1.2c0-0.1,0.1-0.1,0.1-0.2
		c0.3-0.4,0.6-0.8,0.8-1.2c0-0.1,0.1-0.1,0.1-0.2c0.3-0.4,0.5-0.8,0.8-1.2c0-0.1,0.1-0.1,0.1-0.2c0.3-0.4,0.5-0.9,0.7-1.3
		c0,0,0-0.1,0.1-0.1c0.2-0.5,0.5-0.9,0.7-1.4C91.8,49,92.3,39,89,29.5c-3.2-9.3-9.7-17-18.4-21.6c-0.3-0.2-0.6-0.3-1-0.5
		c-0.1,0-0.2-0.1-0.3-0.1c-0.2-0.1-0.5-0.2-0.7-0.3c-0.1,0-0.2-0.1-0.3-0.1c-0.2-0.1-0.5-0.2-0.7-0.3c-0.1,0-0.2-0.1-0.2-0.1
		c-0.3-0.1-0.6-0.3-1-0.4C66.3,6,66.2,6,66.2,6c-0.3-0.1-0.5-0.2-0.8-0.3c-0.1,0-0.2-0.1-0.3-0.1c-0.2-0.1-0.5-0.2-0.7-0.2
		c-0.1,0-0.2-0.1-0.3-0.1c-0.3-0.1-0.6-0.2-1-0.3h0c-0.3-0.1-0.7-0.2-1-0.3c-0.1,0-0.2-0.1-0.3-0.1c-0.2-0.1-0.5-0.1-0.7-0.2
		c-0.1,0-0.2-0.1-0.4-0.1c-0.3-0.1-0.5-0.1-0.8-0.2c-0.1,0-0.2,0-0.3-0.1C59.3,4.1,59,4,58.6,4c-0.1,0-0.2,0-0.3,0
		c-0.3,0-0.5-0.1-0.8-0.1c-0.1,0-0.2,0-0.4,0c-0.2,0-0.5-0.1-0.7-0.1c-0.1,0-0.2,0-0.3,0c-0.3,0-0.6-0.1-0.9-0.1c0,0-0.1,0-0.1,0
		c-0.3,0-0.7,0-1,0c-0.1,0-0.2,0-0.3,0c-0.2,0-0.5,0-0.7,0c-0.1,0-0.1,0-0.2,0s-0.1,0-0.2,0c-0.2,0-0.4,0-0.6,0c-0.1,0-0.3,0-0.4,0
		c-0.2,0-0.4,0-0.6,0c-0.1,0-0.2,0-0.4,0c-0.3,0-0.6,0-0.9,0.1c-0.1,0-0.2,0-0.3,0c-0.2,0-0.5,0-0.7,0.1c-0.1,0-0.3,0-0.4,0
		c-0.2,0-0.4,0-0.6,0.1c-0.1,0-0.3,0-0.4,0.1c-0.2,0-0.4,0.1-0.5,0.1c-0.1,0-0.3,0-0.4,0.1c-0.2,0-0.4,0.1-0.6,0.1
		c-0.1,0-0.3,0.1-0.4,0.1c-0.1,0-0.1,0-0.2,0L46.3,4l2.8-1c19.4-6.3,40.7,4.6,47.5,24.3c3.3,9.6,2.7,19.9-1.8,28.8
		C90.5,64.8,83,71.2,73.7,74.2C72.4,74.5,70.9,74.9,69.5,75.2z M24.4,11.2c0.3-0.1,0.6-0.2,0.8-0.3c0.1,0,0.2-0.1,0.3-0.1
		c0.2-0.1,0.3-0.1,0.5-0.1c0.1,0,0.2,0,0.3-0.1c0.2-0.1,0.4-0.1,0.6-0.2c0,0,0.1,0,0.1,0c17.3-4.2,35.5,6.1,41.5,23.9
		c3.2,9.3,2.5,19.3-1.8,27.9c-4.1,8.1-11,14.2-19.5,17c-16.3,5.4-34-2.5-41.9-17.9c6.3,11.7,18.4,18.9,31,18.9c3.5,0,7-0.5,10.3-1.7
		c8.4-2.8,15.3-8.7,19.4-16.8c4.2-8.4,4.8-18.1,1.7-27.3C61.6,16.1,42,5.9,24.1,11.8c-7.8,2.6-14.3,7.9-18.4,15.1
		C9.8,19.4,16.4,13.9,24.4,11.2z M24.2,12.2c17.6-5.8,37,4.3,43.2,22.5c3.1,9,2.5,18.6-1.7,26.9c-4,7.9-10.7,13.8-19.1,16.6
		c-3.4,1.1-6.8,1.6-10.2,1.6c-14.3,0-28-9.4-33-24.1c-3.1-9-2.5-18.6,1.7-26.9C9.1,20.9,15.9,15,24.2,12.2z"/>
	
		<rect x="61.2" y="50.3" transform="matrix(0.4221 -0.9065 0.9065 0.4221 -15.1419 88.2443)" class="st1" width="0.9" height="11.4"/>
	
		<rect x="55.7" y="35.1" transform="matrix(0.9574 -0.2887 0.2887 0.9574 -7.6651 19.2316)" class="st1" width="11.2" height="0.9"/>
	
		<rect x="45.3" y="67.1" transform="matrix(0.9485 -0.3168 0.3168 0.9485 -20.5672 18.2125)" class="st1" width="0.9" height="10.4"/>
	<rect x="19.5" y="71.4" transform="matrix(0.4016 -0.9158 0.9158 0.4016 -51.2181 65.336)" class="st1" width="9.8" height="0.9"/>
	<rect x="3.8" y="54.1" transform="matrix(0.9607 -0.2777 0.2777 0.9607 -14.8008 4.545)" class="st1" width="9.7" height="0.9"/>
	<rect x="9.2" y="28.4" transform="matrix(0.4158 -0.9095 0.9095 0.4158 -24.6028 28.202)" class="st1" width="0.9" height="9.6"/>
	<path class="st0" d="M13.7,52.8c3.3,9.8,12.3,16.1,21.8,16.1c2.3,0,4.5-0.4,6.8-1.1c5.5-1.8,9.9-5.7,12.6-11c2.8-5.6,3.2-12,1.2-18
		c-4.1-12.1-16.9-18.8-28.5-14.9c-5.5,1.8-10,5.7-12.6,11C12.1,40.4,11.6,46.7,13.7,52.8z M15.3,35c2.6-5.2,7-8.9,12.3-10.7
		c2.2-0.7,4.4-1.1,6.6-1.1c9.3,0,18.1,6.2,21.3,15.7c2,5.9,1.6,12.2-1.1,17.7c-2.6,5.2-7,8.9-12.3,10.7
		c-11.4,3.8-23.9-2.8-27.9-14.7C12.1,46.7,12.5,40.5,15.3,35z"/>
	<path class="st0" d="M35.6,65.1c1.9,0,3.8-0.3,5.7-0.9c4.6-1.5,8.4-4.8,10.6-9.2c2.3-4.7,2.7-10.1,1-15.2
		c-3.4-10.2-14.2-15.9-24-12.6c-4.7,1.5-8.4,4.8-10.6,9.2c-2.3,4.7-2.7,10.1-1,15.2C20.1,59.8,27.6,65.1,35.6,65.1z M18.7,36.6
		c2.2-4.3,5.8-7.5,10.3-9c9.6-3.2,20.1,2.4,23.4,12.3c1.7,5,1.3,10.2-1,14.8c-2.2,4.3-5.8,7.5-10.3,9c-9.6,3.2-20.1-2.4-23.4-12.3
		C16,46.4,16.4,41.2,18.7,36.6z"/>
</g>
</svg>
