<?xml version="1.0" standalone="no"?>
<!DOCTYPE svg PUBLIC "-//W3C//DTD SVG 20010904//EN"
 "http://www.w3.org/TR/2001/REC-SVG-20010904/DTD/svg10.dtd">
<svg version="1.0" xmlns="http://www.w3.org/2000/svg"
 width="87.000000pt" height="87.000000pt" viewBox="0 0 87.000000 87.000000"
 preserveAspectRatio="xMidYMid meet">
<metadata>
Created by potrace 1.13, written by Peter Selinger 2001-2015
</metadata>
<g transform="translate(0.000000,87.000000) scale(0.100000,-0.100000)"
fill="#000000" stroke="none">
<path d="M8 866 c0 -1 -2 -81 -3 -178 0 -97 2 -175 5 -173 4 2 6 78 5 169 0
106 3 167 10 169 9 3 793 1 821 -2 15 -1 16 -831 0 -832 -6 -1 -30 -2 -53 -3
-23 0 -45 -4 -48 -8 -4 -4 21 -6 56 -5 l64 3 3 430 2 430 -430 0 c-236 0 -431
0 -432 0z"/>
<path d="M49 562 c-14 -2 -16 -21 -16 -127 l0 -125 34 0 c32 0 33 1 33 39 0
36 2 39 34 45 43 8 67 35 71 82 2 28 -3 43 -21 61 -13 13 -29 23 -36 24 -50 3
-85 4 -99 1z"/>
<path d="M484 556 c-2 -6 -2 -35 -1 -63 2 -29 0 -53 -5 -53 -4 0 -8 8 -8 18 0
24 -34 73 -62 88 -29 17 -93 18 -121 2 -118 -63 -73 -245 60 -240 64 3 123 54
123 108 0 10 3 14 7 10 4 -4 7 -30 8 -59 0 -51 0 -52 33 -55 31 -3 32 -2 32
36 0 35 3 40 28 45 41 9 63 29 72 67 l8 35 2 -40 c1 -22 2 -64 2 -92 l0 -53
34 0 c33 0 34 1 34 39 0 36 2 39 34 45 47 9 71 39 70 88 -2 59 -26 78 -105 81
-51 2 -64 -1 -65 -13 -1 -8 -2 -24 -3 -35 -2 -17 -4 -17 -16 7 -8 15 -25 30
-37 34 -37 11 -120 11 -124 0z"/>
</g>
</svg>
