<?xml version="1.0" encoding="utf-8"?>
<!-- Generator: Adobe Illustrator 16.0.0, SVG Export Plug-In . SVG Version: 6.00 Build 0)  -->
<!DOCTYPE svg PUBLIC "-//W3C//DTD SVG 1.0//EN" "http://www.w3.org/TR/2001/REC-SVG-20010904/DTD/svg10.dtd">
<svg version="1.0" id="Layer_1" xmlns="http://www.w3.org/2000/svg" xmlns:xlink="http://www.w3.org/1999/xlink" x="0px" y="0px"
	 width="69.667px" height="125px" viewBox="0 0 69.667 125" enable-background="new 0 0 69.667 125" xml:space="preserve">
<g>
	<path fill-rule="evenodd" clip-rule="evenodd" d="M25.711,7.976c3.782,2.465,8.133,3.719,12.238,5.425
		c3.99,1.66,5.739,3.832,6.385,8.288c2.863,19.75,6.386,39.404,9.313,59.146c0.497,3.352,0.212,7.49-1.367,10.352
		c-4.544,8.234-9.812,16.084-15.039,23.922c-3.223,4.832-7.799,1.479-12.417,1.738c0-7.584,0-14.828,0-22.07
		c0-26.99-0.018-53.979,0.039-80.968c0.004-1.955,0.547-3.908,0.84-5.861L25.711,7.976z M41.76,81.671
		c9.059-7.217,9.105-7.225,7.521-17.147c-1.96-12.287-4.091-24.546-5.994-36.841c-1.571-10.147-1.577-10.271-12.495-12.369
		C34.435,37.353,38.043,59.184,41.76,81.671z"/>
	<path fill-rule="evenodd" clip-rule="evenodd" d="M24.703,7.948c-0.453,2.212-1.294,4.423-1.3,6.637
		c-0.085,32.095-0.059,64.189-0.059,96.283c0,1.9,0,3.801,0,5.701c-0.663,0.104-1.326,0.207-1.988,0.311
		c-0.396-1.59-1.116-3.174-1.14-4.771c-0.221-14.629-0.334-29.258-0.455-43.889c-0.147-17.788-0.134-35.579-0.504-53.362
		c-0.089-4.285,1.119-6.562,5.453-6.869C24.711,7.976,24.703,7.948,24.703,7.948z"/>
</g>
</svg>
