<?xml version="1.0" encoding="utf-8"?>
<!-- Generator: Adobe Illustrator 21.0.0, SVG Export Plug-In . SVG Version: 6.00 Build 0)  -->
<svg version="1.1" id="Laag_1" xmlns="http://www.w3.org/2000/svg" xmlns:xlink="http://www.w3.org/1999/xlink" x="0px" y="0px"
	 viewBox="0 0 61 40" style="enable-background:new 0 0 61 40;" xml:space="preserve">
<title>Group 165</title>
<desc>Created with Sketch.</desc>
<g>
	<g transform="translate(-480.000000, -2344.000000)">
		<g transform="translate(480.000000, 2344.000000)">
			<path d="M23.5,17c-0.6,0-1,0.4-1,1v14c0,0.6,0.4,1,1,1h14c0.6,0,1-0.4,1-1V18c0-0.6-0.4-1-1-1H23.5z M37.5,35h-14
				c-1.7,0-3-1.3-3-3V18c0-1.7,1.3-3,3-3h14c1.7,0,3,1.3,3,3v14C40.5,33.7,39.2,35,37.5,35L37.5,35z"/>
			<path d="M3.5,19c-0.6,0-1,0.4-1,1v10c0,0.6,0.4,1,1,1h17V19H3.5z M21.5,33h-18c-1.7,0-3-1.3-3-3V20c0-1.7,1.3-3,3-3h18
				c0.6,0,1,0.4,1,1v14C22.5,32.6,22.1,33,21.5,33L21.5,33z"/>
			<path d="M40.5,31h17c0.6,0,1-0.4,1-1V20c0-0.6-0.4-1-1-1h-17V31z M57.5,33h-18c-0.6,0-1-0.4-1-1V18c0-0.6,0.4-1,1-1h18
				c1.7,0,3,1.3,3,3v10C60.5,31.7,59.2,33,57.5,33L57.5,33z"/>
			<path d="M5.5,23h-4c-0.6,0-1-0.4-1-1s0.4-1,1-1h4c0.6,0,1,0.4,1,1S6.1,23,5.5,23"/>
			<path d="M21.5,23h-8c-0.6,0-1-0.4-1-1s0.4-1,1-1h8c0.6,0,1,0.4,1,1S22.1,23,21.5,23"/>
			<path d="M10.5,22c0-0.6-0.4-1-1-1s-1,0.4-1,1s0.4,1,1,1S10.5,22.6,10.5,22"/>
			<path d="M49.5,23h-10c-0.6,0-1-0.4-1-1s0.4-1,1-1h10c0.6,0,1,0.4,1,1S50.1,23,49.5,23"/>
			<path d="M54.5,22c0-0.6-0.4-1-1-1c-0.6,0-1,0.4-1,1s0.4,1,1,1C54.1,23,54.5,22.6,54.5,22"/>
			<path d="M59.5,23h-2c-0.6,0-1-0.4-1-1s0.4-1,1-1h2c0.6,0,1,0.4,1,1S60.1,23,59.5,23"/>
			<path d="M27.5,15h6v-2h-6V15z M34.5,17h-8c-0.6,0-1-0.4-1-1v-4c0-0.6,0.4-1,1-1h8c0.6,0,1,0.4,1,1v4C35.5,16.6,35.1,17,34.5,17
				L34.5,17z"/>
			<path d="M27.5,11h8.6l4.7-3.8C41.1,7.1,41.3,7,41.5,7h17V5H39.9l-4.7,3.8C34.9,8.9,34.7,9,34.5,9h-7V11z M36.5,13h-10
				c-0.6,0-1-0.4-1-1V8c0-0.6,0.4-1,1-1h7.6l4.7-3.8C39.1,3.1,39.3,3,39.5,3h20c0.6,0,1,0.4,1,1v4c0,0.6-0.4,1-1,1H41.9l-4.7,3.8
				C36.9,12.9,36.7,13,36.5,13L36.5,13z"/>
			<path d="M29.5,7h2V6c0-0.6-0.4-1-1-1c-0.6,0-1,0.4-1,1V7z M32.5,9h-4c-0.6,0-1-0.4-1-1V6c0-1.7,1.3-3,3-3s3,1.3,3,3v2
				C33.5,8.6,33.1,9,32.5,9L32.5,9z"/>
		</g>
	</g>
</g>
</svg>
