<?xml version="1.0" encoding="utf-8"?>
<!-- Generator: Adobe Illustrator 16.0.0, SVG Export Plug-In . SVG Version: 6.00 Build 0)  -->
<!DOCTYPE svg PUBLIC "-//W3C//DTD SVG 1.1//EN" "http://www.w3.org/Graphics/SVG/1.1/DTD/svg11.dtd">
<svg version="1.1" id="Layer_1" xmlns="http://www.w3.org/2000/svg" xmlns:xlink="http://www.w3.org/1999/xlink" x="0px" y="0px"
	 width="600px" height="600px" viewBox="0 0 600 600" enable-background="new 0 0 600 600" xml:space="preserve">
<g>
	<path fill="#010101" d="M300.688,2.656C136.696,2.656,3.288,136.072,3.288,300.056c0,163.992,133.416,297.408,297.399,297.408
		c163.984,0,297.4-133.416,297.4-297.408C598.096,136.064,464.68,2.656,300.688,2.656z M300.688,581.016
		c-154.92,0-280.959-126.04-280.959-280.96S145.76,19.096,300.688,19.096c154.921,0,280.961,126.032,280.961,280.959
		C581.648,454.984,455.608,581.016,300.688,581.016z"/>
	<path fill="#010101" d="M300.688,41.392c-142.632,0-258.664,116.032-258.664,258.664c0,142.633,116.032,258.664,258.664,258.664
		c142.633,0,258.664-116.031,258.664-258.664C559.36,157.424,443.32,41.392,300.688,41.392z M300.688,550.72
		c-138.439,0-250.664-112.216-250.664-250.664c0-138.439,112.224-250.664,250.664-250.664
		c138.433,0,250.664,112.224,250.664,250.664C551.36,438.504,439.128,550.72,300.688,550.72z"/>
	<path fill="#010101" d="M317.888,464.521v10.447c34.864-3.408,66.769-17.048,92.672-37.872l-7.64-7.216
		C379,448.736,349.832,461.216,317.888,464.521z"/>
	<path fill="#010101" d="M426.816,406.872L434.36,414c20.456-23.968,34.607-53.456,39.832-85.912h-10.688
		C458.424,357.816,445.504,384.824,426.816,406.872z"/>
	<path fill="#010101" d="M285.888,135.44v-10.48c-41.104,3.448-78.208,21.088-106.416,48.008l7.584,7.168
		C213.328,155.232,247.696,138.832,285.888,135.44z"/>
	<path fill="#010101" d="M190.736,437.04c26.512,21.32,59.312,35.104,95.151,38.12v-10.488c-32.863-2.92-62.912-15.472-87.416-34.8
		L190.736,437.04z"/>
	<path fill="#010101" d="M165.352,205.216l-7.623-7.208c-19.688,27.496-31.633,60.872-32.664,96.96h10.527
		C136.608,261.608,147.408,230.768,165.352,205.216z"/>
	<path fill="#010101" d="M127.192,328.088c5.216,32.416,19.336,61.88,39.76,85.832l7.607-7.048
		c-18.688-22.056-31.6-49.064-36.68-78.784H127.192L127.192,328.088z"/>
	<path fill="#010101" d="M438.048,207.992c16.784,24.992,26.769,54.84,27.752,86.968h10.528c-1-34.824-12.145-67.136-30.608-94.064
		L438.048,207.992z"/>
	<path fill="#010101" d="M424.48,175.416c-27.969-27.776-65.192-46.224-106.584-50.264V135.6
		c38.439,3.976,72.951,21.136,98.983,46.856L424.48,175.416z"/>
	<path fill="#010101" d="M317.888,447.8c27.177-3.144,52.08-13.688,72.8-29.504l-7.655-7.232
		c-18.688,13.896-40.92,23.2-65.145,26.232V447.8z"/>
	<path fill="#010101" d="M436.248,328.088c-4.656,22.568-14.832,43.136-29.048,60.24l7.544,7.144
		c15.936-19.023,27.168-42.08,32.023-67.384H436.248z"/>
	<path fill="#010101" d="M404.656,193.776c-22.984-22.488-53.176-37.568-86.769-41.456v10.504
		c30.576,3.816,58.064,17.584,79.12,38.024L404.656,193.776z"/>
	<path fill="#010101" d="M449.248,294.96c-0.944-27.744-9.456-53.568-23.624-75.464l-7.769,7.192
		c12.528,19.943,20.08,43.239,20.992,68.264h10.4V294.96z"/>
	<path fill="#010101" d="M210.848,418.416c21.305,16.208,46.992,26.928,75.04,29.712v-10.472
		c-25.048-2.672-48.032-12.16-67.296-26.416L210.848,418.416z"/>
	<path fill="#010101" d="M162.528,294.96c0.96-26.152,9.096-50.48,22.655-70.992l-7.695-7.28
		c-15.256,22.48-24.368,49.36-25.353,78.272H162.528z"/>
	<path fill="#010101" d="M165.136,328.088h-10.527c4.855,25.368,16.136,48.464,32.136,67.504l7.616-7.063
		C180.064,371.376,169.816,350.752,165.136,328.088z"/>
	<path fill="#010101" d="M285.888,151.992c-33.416,3.32-63.504,17.824-86.744,39.584l7.561,7.152
		c21.304-19.776,48.735-33.016,79.176-36.272v-10.464H285.888z"/>
	<path fill="#010101" d="M317.888,420.568c19.513-2.776,37.544-10.128,52.952-21.032l-7.656-7.24
		c-13.312,9.064-28.728,15.185-45.296,17.769V420.568z"/>
	<path fill="#010101" d="M214.16,370.192c-9.889-12.177-17.168-26.496-21.232-42.112H182.2c4.336,18.32,12.712,35.104,24.296,49.2
		L214.16,370.192z"/>
	<path fill="#010101" d="M197.464,235.576c-10.888,17.376-17.479,37.632-18.384,59.384h10.4c0.863-18.992,6.472-36.72,15.703-52.088
		L197.464,235.576z"/>
	<path fill="#010101" d="M384.84,212.12c-17.968-17.2-41.168-28.904-66.952-32.568v10.504c22.784,3.552,43.272,13.968,59.313,29.152
		L384.84,212.12z"/>
	<path fill="#010101" d="M419.176,328.088h-10.728c-4.017,15.433-11.185,29.584-20.896,41.664l7.601,7.176
		C406.592,362.904,414.872,346.264,419.176,328.088z"/>
	<path fill="#010101" d="M285.888,179.176c-25.712,3.136-48.92,14.32-67.144,30.928l7.568,7.16
		c16.279-14.64,36.832-24.536,59.575-27.576V179.176z"/>
	<path fill="#010101" d="M405.488,238.16l-7.784,7.2c8.376,14.775,13.392,31.64,14.2,49.6h10.399
		C421.44,274.272,415.44,254.936,405.488,238.16z"/>
	<path fill="#010101" d="M230.92,399.832c15.96,11.192,34.688,18.64,54.968,21.112V410.44c-17.279-2.305-33.352-8.496-47.2-17.801
		L230.92,399.832z"/>
	<path fill="#010101" d="M285.888,216.912v-10.504c-18.032,2.84-34.376,10.736-47.536,22.24l7.568,7.159
		C257.104,226.248,270.808,219.592,285.888,216.912z"/>
	<path fill="#010101" d="M365.032,230.472c-12.92-11.959-29.128-20.384-47.145-23.696v10.52
		c15.017,3.12,28.528,10.296,39.504,20.248L365.032,230.472z"/>
	<path fill="#010101" d="M225.344,261.944l-7.888-7.464c-6.664,12.128-10.656,25.88-11.432,40.479h10.399
		C217.136,283.144,220.248,271.976,225.344,261.944z"/>
	<path fill="#010101" d="M234.008,351.816c-5.52-7.097-9.92-15.089-12.968-23.729h-11.048c3.512,11.336,9.144,21.729,16.352,30.824
		L234.008,351.816z"/>
	<path fill="#010101" d="M395.36,294.96c-0.736-13.616-4.296-26.48-10.185-37.992l-7.968,7.384c4.408,9.4,7.112,19.721,7.76,30.608
		H395.36z"/>
	<path fill="#010101" d="M251.288,380.96c10.392,6.368,22.08,10.776,34.6,12.752v-10.504c-9.536-1.696-18.52-4.968-26.672-9.576
		L251.288,380.96z"/>
	<path fill="#010101" d="M375.472,358.32c7-8.952,12.488-19.137,15.92-30.232h-11.048c-2.952,8.368-7.184,16.12-12.472,23.056
		L375.472,358.32z"/>
	<path fill="#010101" d="M317.888,382.824v10.52c11.889-2.184,22.968-6.607,32.872-12.8l-7.824-7.392
		C335.264,377.608,326.848,380.952,317.888,382.824z"/>
	<path fill="#010101" d="M511.32,291.872c-11.601,0-21.008,9.408-21.008,21.016c0,11.601,9.407,21.008,21.008,21.008
		c11.6,0,21.008-9.407,21.008-21.008C532.328,301.28,522.92,291.872,511.32,291.872z M511.32,325.896
		c-7.177,0-13.008-5.831-13.008-13.008c0-7.176,5.831-13.016,13.008-13.016c7.176,0,13.008,5.832,13.008,13.016
		C524.328,320.064,518.504,325.896,511.32,325.896z"/>
	<path fill="#010101" d="M341.464,300.056c0-22.399-18.168-40.552-40.56-40.552c-22.4,0-40.561,18.16-40.561,40.552
		c0,22.393,18.16,40.561,40.561,40.561C323.296,340.616,341.464,322.456,341.464,300.056z M300.896,316.616
		c-9.137,0-16.561-7.433-16.561-16.561s7.432-16.552,16.561-16.552c9.128,0,16.56,7.424,16.56,16.552
		S310.032,316.616,300.896,316.616z"/>
</g>
</svg>
