<?xml version="1.0" encoding="utf-8"?>
<!-- Generator: Adobe Illustrator 16.0.0, SVG Export Plug-In . SVG Version: 6.00 Build 0)  -->
<!DOCTYPE svg PUBLIC "-//W3C//DTD SVG 1.1//EN" "http://www.w3.org/Graphics/SVG/1.1/DTD/svg11.dtd">
<svg version="1.1" id="Layer_1" xmlns="http://www.w3.org/2000/svg" xmlns:xlink="http://www.w3.org/1999/xlink" x="0px" y="0px"
	 width="283.46px" height="192.76px" viewBox="0 0 283.46 192.76" enable-background="new 0 0 283.46 192.76" xml:space="preserve">
<path fill-rule="evenodd" clip-rule="evenodd" d="M111.923,134.364c-1.687-0.332-3.391-0.593-5.057-1.007
	c-15.055-3.735-26.007-16.026-28.016-31.4c-2.666-20.406,12.407-39.428,32.815-41.414c19.756-1.923,37.036,10.887,40.448,30.462
	c3.708,21.269-10.804,39.358-29.749,42.787c-0.984,0.178-1.964,0.381-2.946,0.572C116.92,134.364,114.422,134.364,111.923,134.364z
	 M119.5,77.002c-0.367,2.215-0.367,2.215,1.526,2.787c6.907,2.087,12.141,8.746,12.56,15.981
	c0.673,11.603-8.837,20.857-20.044,19.509c-8.594-1.035-15.149-7.818-15.869-16.94c-0.65-8.247,4.121-15.587,12.504-18.431
	c1.96-0.665,1.966-0.648,1.599-2.832c-8.75,0.293-16.686,10.258-16.607,20.853c0.079,10.602,9.272,19.793,19.943,19.939
	c11.166,0.153,20.562-8.553,21.035-19.443C136.702,85.642,126.863,77.736,119.5,77.002z M116.741,92.571c0-7.045,0-14.01,0-20.947
	c-0.811,0-1.503,0-2.214,0c0,7.04,0,13.968,0,20.947C115.319,92.571,116.012,92.571,116.741,92.571z"/>
<path fill-rule="evenodd" clip-rule="evenodd" d="M186.016,59.983c1.636,0.336,3.292,0.591,4.902,1.021
	c7.582,2.021,12.384,6.821,14.217,14.483c1.306,5.453,1.404,10.953,0.042,16.393c-2.249,8.976-8.31,14.111-17.089,16.166
	c-2.73,0.639-5.595,0.739-8.406,0.989c-1.373,0.122-2.768,0.021-4.303,0.021c0,8.354,0,16.588,0,24.95c-6.165,0-12.179,0-18.383,0
	c0-0.622,0-1.231,0-1.841c0-23.44,0-46.88-0.005-70.32c0-0.621-0.061-1.241-0.094-1.862
	C166.604,59.983,176.31,59.983,186.016,59.983z M175.392,93.99c1.591,0,3.082,0.127,4.544-0.024c3.776-0.391,6.143-2.19,6.799-5.565
	c0.433-2.222,0.487-4.577,0.31-6.841c-0.226-2.863-1.609-5.251-4.62-5.903c-2.252-0.488-4.617-0.453-7.032-0.659
	C175.392,81.492,175.392,87.66,175.392,93.99z"/>
<path fill-rule="evenodd" clip-rule="evenodd" d="M239.928,59.983c1.584,0.33,3.188,0.587,4.75,1.001
	c8.47,2.246,13.722,8.208,14.798,16.953c0.648,5.265,0.762,10.548-0.945,15.674c-2.697,8.092-8.603,12.621-16.683,14.444
	c-2.829,0.638-5.788,0.723-8.695,0.982c-1.232,0.11-2.482,0.019-3.944,0.019c0,8.378,0,16.647,0,24.998c-6.203,0-12.187,0-18.361,0
	c0-0.653,0-1.261,0-1.868c0-23.443,0.001-46.887-0.001-70.331c0-0.624-0.023-1.248-0.036-1.872
	C220.516,59.983,230.222,59.983,239.928,59.983z M229.235,94.144c1.926-0.13,3.783-0.14,5.604-0.403
	c3.341-0.483,5.393-2.575,5.871-5.817c0.343-2.33,0.271-4.77,0.028-7.124c-0.231-2.25-1.503-4.036-3.707-4.918
	c-2.517-1.006-5.142-0.675-7.797-0.692C229.235,81.545,229.235,87.707,229.235,94.144z"/>
<path fill-rule="evenodd" clip-rule="evenodd" d="M53.687,59.983c1.532,0.322,3.079,0.583,4.592,0.975
	c8.651,2.237,14.01,8.576,14.986,17.601c0.504,4.661,0.556,9.296-0.707,13.851c-2.408,8.686-8.388,13.624-16.918,15.625
	c-2.728,0.641-5.588,0.747-8.397,1c-1.378,0.123-2.777,0.021-4.376,0.021c0,8.352,0,16.619,0,25.02c-6.239,0-12.268,0-18.298,0
	c0-24.697,0-49.395,0-74.093C34.275,59.983,43.981,59.983,53.687,59.983z M42.851,93.976c1.669,0,3.214,0.152,4.719-0.029
	c4.076-0.492,6.428-2.631,6.926-6.496c0.266-2.066,0.224-4.212,0.006-6.289c-0.215-2.051-1.145-3.892-3.083-4.928
	c-2.708-1.447-5.623-1.061-8.567-0.998C42.851,81.555,42.851,87.68,42.851,93.976z"/>
</svg>
