<?xml version="1.0" encoding="utf-8"?>
<!-- Generator: Adobe Illustrator 21.0.0, SVG Export Plug-In . SVG Version: 6.00 Build 0)  -->
<svg version="1.1" id="Laag_1" xmlns="http://www.w3.org/2000/svg" xmlns:xlink="http://www.w3.org/1999/xlink" x="0px" y="0px"
	 viewBox="0 0 100 100" style="enable-background:new 0 0 100 100;" xml:space="preserve">
<g transform="translate(-163.81255,-232.68934)">
	<path d="M175.5,232.9c-2.6,0-4.7,2.1-4.7,4.7v8.9c0,2.6,2.1,4.7,4.7,4.7h2.6h3.7h2.6c2.6,0,4.7-2.1,4.7-4.7v-8.9
		c0-2.6-2.1-4.7-4.7-4.7h-2.6h-3.7H175.5L175.5,232.9z M206.3,232.9c-2.6,0-4.7,2.1-4.7,4.7v8.9c0,2.6,2.1,4.7,4.7,4.7h2.6h3.7h2.6
		c2.6,0,4.7-2.1,4.7-4.7v-8.9c0-2.6-2.1-4.7-4.7-4.7h-2.6h-3.7H206.3L206.3,232.9z M237.2,232.9c-2.6,0-4.7,2.1-4.7,4.7v8.9
		c0,2.6,2.1,4.7,4.7,4.7h2.6h3.7h2.6c2.6,0,4.7-2.1,4.7-4.7v-8.9c0-2.6-2.1-4.7-4.7-4.7h-2.6h-3.7H237.2L237.2,232.9z M206.4,261.5
		c-2.6,0-4.7,2.1-4.7,4.7v8.9c0,0.9,0.3,1.8,0.8,2.6v-5.4h0c0-2.3,1-4.5,2.6-6.1c1.7-1.6,3.9-2.5,6.3-2.3c4.5,0.2,8,4.1,8,8.9v4.7
		c0.4-0.7,0.6-1.5,0.6-2.3v-8.9c0-2.6-2.1-4.7-4.7-4.7H206.4L206.4,261.5z M175.5,261.5c-2.6,0-4.7,2.1-4.7,4.7v8.9
		c0,2.6,2.1,4.7,4.7,4.7h2.6h3.7h2.6c2.6,0,4.7-2.1,4.7-4.7v-8.9c0-2.6-2.1-4.7-4.7-4.7h-2.6h-3.7H175.5L175.5,261.5z M237.2,261.5
		c-2.6,0-4.7,2.1-4.7,4.7v8.9c0,2.6,2.1,4.7,4.7,4.7h2.6h3.7h2.6c2.6,0,4.7-2.1,4.7-4.7v-8.9c0-2.6-2.1-4.7-4.7-4.7h-2.6h-3.7H237.2
		L237.2,261.5z M211.2,265.5c-4-0.2-7.2,2.9-7.2,6.8v28.5v13l-7.7-7.6c-2.6-2.6-6.9-3-9.7-0.5c-2.9,2.6-3,7.2-0.3,9.9l13,13
		c2.8,2.8,6.6,4.4,10.6,4.4h38.8c5,0,9-4,9-9v-23.1h-0.1v-6c0-3.3-2.3-6.4-5.5-7c-3.8-0.7-7.1,1.7-7.9,5.1c-0.7-3.1-3.4-5.3-6.7-5.3
		c-3.3,0-6,2.3-6.7,5.4c-0.7-3.1-3.4-5.4-6.7-5.4c-3,0-5.6,2-6.5,4.8v-19.6C217.7,269,214.9,265.7,211.2,265.5L211.2,265.5z
		 M175.5,290.1c-2.6,0-4.7,2.1-4.7,4.7v9c0,2.6,2.1,4.7,4.7,4.7h7.6c0.4-1.5,1.3-2.9,2.5-4c1.1-0.9,2.3-1.5,3.5-1.8v-7.8
		c0-2.6-2.1-4.7-4.7-4.7H175.5L175.5,290.1z"/>
</g>
</svg>
