<?xml version="1.0" encoding="utf-8"?>
<!-- Generator: Adobe Illustrator 21.0.0, SVG Export Plug-In . SVG Version: 6.00 Build 0)  -->
<svg version="1.1" id="Laag_1" xmlns="http://www.w3.org/2000/svg" xmlns:xlink="http://www.w3.org/1999/xlink" x="0px" y="0px"
	 viewBox="0 0 152 171.3" style="enable-background:new 0 0 152 171.3;" xml:space="preserve">
<path d="M146.2,108.5l-11-5.7c-0.6-0.4-1.5-0.4-2.3,0l-36.6,20.5c-0.2-0.2-0.6-0.2-0.8-0.4V74.4c0-12.1-9.9-22-22-22H56.9
	c-12.1,0-22,9.9-22,22V132c0,12.1,9.9,22,22,22h2.5c0.4,1.3,1.1,2.5,1.7,3.6c4.7,8.3,13.3,13.1,22.2,13.1c4.2,0,8.5-1.1,12.3-3.2
	c8-4.4,12.9-12.9,12.9-22l8.3-4.7c0.6-0.4,1.1-0.8,1.1-1.5l1.3-5.3l5.3,1.7c0.6,0.2,1.3,0.2,1.9-0.2l4.7-2.5
	c0.6-0.4,1.1-0.8,1.3-1.7l1.1-5.3l5.1,1.9c0.6,0.2,1.3,0.2,1.9-0.2l4.4-2.5c0.6-0.4,1.1-1.1,1.3-1.9l1.1-12.3
	C147.5,109.8,147.1,108.9,146.2,108.5z M44.7,132V74.4c0-6.8,5.5-12.5,12.5-12.5h16.3c6.8,0,12.5,5.5,12.5,12.5V132
	c0,6.8-5.5,12.5-12.5,12.5H62.9c0.2-1.5,0.6-2.8,1.5-4c0.2,0,0.6,0,0.8,0c2.8,0,4.9-2.1,4.9-4.9c0-2.8-2.1-4.9-4.9-4.9
	s-4.9,2.1-4.9,4.9c0,0.6,0.2,1.3,0.4,1.7c-1.5,2.1-2.3,4.4-2.5,7h-1.1C50.2,144.5,44.7,138.8,44.7,132z M141.8,121.4l-2.5,1.3
	l-6.6-2.3c-0.6-0.2-1.3-0.2-1.9,0.2c-0.6,0.4-1.1,0.8-1.3,1.7l-1.5,7l-2.8,1.5l-6.8-2.3c-0.6-0.2-1.3-0.2-1.9,0.2
	c-0.6,0.4-1.1,0.8-1.1,1.5l-1.5,7l-8.7,4.9c-0.8,0.4-1.3,1.3-1.3,2.1c0.4,7.8-3.6,15.2-10.6,19c-9.3,5.1-20.7,2.3-26.7-5.9
	c1.3,0.4,2.8,0.8,4.2,0.8c2.1,0,4.4-0.6,6.3-1.7c0.4,0,0.6,0,1.1,0c1.3,0,2.8-0.4,4-1.1c2.3-1.3,3.6-3.4,4.2-5.7
	c5.5-4,8.9-10.4,8.9-17.6v-3.6c0.6,0.2,1.3,0.2,1.9-0.2l36.8-20.5l8.5,4.4L141.8,121.4z"/>
<path d="M119.4,29c0.8,0.8,2.5,0.8,3.4,0c0.8-0.8,0.8-2.5,0-3.4C91-6.2,39.6-6.2,7.9,25.6C7,26.4,7,28.1,7.9,29
	c0.4,0.4,1.1,0.6,1.7,0.6c0.6,0,1.3-0.2,1.7-0.6C41.1-0.9,89.5-0.9,119.4,29z"/>
<path d="M100.7,47.6c0.4,0.4,1.1,0.6,1.7,0.6c0.6,0,1.3-0.2,1.7-0.6c0.8-0.8,0.8-2.5,0-3.4c-21.6-21.6-56.5-21.6-77.9,0
	c-0.8,0.8-0.8,2.5,0,3.4c0.8,0.8,2.5,0.8,3.4,0C49.3,27.9,81.3,27.9,100.7,47.6z"/>
<path d="M65.2,92.4c6.1,0,11.2-5.1,11.2-11.2c0-6.1-5.1-11.2-11.2-11.2S54,75.1,54,81.2C54,87.3,59.1,92.4,65.2,92.4z M65.2,74.9
	c3.6,0,6.3,3,6.3,6.3c0,3.4-3,6.3-6.3,6.3c-3.6,0-6.3-3-6.3-6.3C58.8,77.8,61.6,74.9,65.2,74.9z"/>
<path d="M65.2,119.9c6.1,0,11.2-5.1,11.2-11.2c0-6.1-5.1-11.2-11.2-11.2S54,102.6,54,108.7C54,114.8,59.1,119.9,65.2,119.9z
	 M65.2,102.4c3.6,0,6.3,3,6.3,6.3c0,3.4-3,6.3-6.3,6.3c-3.6,0-6.3-3-6.3-6.3C58.8,105.3,61.6,102.4,65.2,102.4z"/>
</svg>
