<?xml version="1.0" encoding="utf-8"?>
<!-- Generator: Adobe Illustrator 16.0.0, SVG Export Plug-In . SVG Version: 6.00 Build 0)  -->
<!DOCTYPE svg PUBLIC "-//W3C//DTD SVG 1.1//EN" "http://www.w3.org/Graphics/SVG/1.1/DTD/svg11.dtd">
<svg version="1.1" id="Layer_1" xmlns="http://www.w3.org/2000/svg" xmlns:xlink="http://www.w3.org/1999/xlink" x="0px" y="0px"
	 width="150px" height="150px" viewBox="0 0 150 150" enable-background="new 0 0 150 150" xml:space="preserve">
<g>
	<path fill="#0A0C0D" d="M110.094,67.81c0,20.772,0,41.545,0,62.343c0,0.158,0,0.313,0,0.489c0,0.106-0.025,0.225-0.067,0.332
		c-0.064,0.225-0.198,0.398-0.397,0.53c-0.185,0.117-0.356,0.198-0.529,0.316c-2.821,1.617-5.668,3.234-8.479,4.877
		c-6.199,3.55-12.386,7.101-18.585,10.677c-0.147,0.092-0.306,0.181-0.463,0.266c-0.358,0.184-0.705,0.199-1.047,0
		c-0.82-0.439-1.617-0.929-2.438-1.378c-0.065-0.041-0.107-0.065-0.173-0.107c-0.226-0.173-0.382-0.397-0.382-0.688
		c0-0.199,0-0.423,0-0.621c0-4.546,0-9.077,0-13.628c0-0.217,0-0.469-0.016-0.684c-0.052-0.023-0.067-0.068-0.118-0.068
		c-0.04,0-0.086,0-0.133,0.019c-0.198,0.118-0.397,0.226-0.596,0.332c-2.041,1.178-4.087,2.331-6.107,3.509
		c-0.286,0.174-0.597,0.311-0.929,0.398c-0.403,0.092-0.801,0.225-1.199,0.317c-0.025,0-0.045,0.015-0.066,0.015
		c-0.668,0.158-0.556,0.158-1.199,0c-0.444-0.107-0.888-0.24-1.312-0.352c-0.288-0.068-0.556-0.179-0.821-0.337
		c-2.132-1.22-4.259-2.465-6.412-3.684c-5.838-3.351-11.652-6.719-17.493-10.069c-0.153-0.092-0.308-0.185-0.464-0.266
		c-0.199-0.117-0.356-0.291-0.443-0.515c-0.046-0.093-0.067-0.174-0.067-0.266c0-0.093,0-0.177,0-0.266c0-0.185,0-0.357,0-0.556
		c0-28.34,0-56.686,0-85.002c0-0.245,0-0.51,0-0.755c0-0.291,0.154-0.534,0.378-0.709c0.112-0.092,0.22-0.158,0.357-0.225
		c0.643-0.377,1.306-0.729,1.975-1.106c12.539-7.081,25.057-14.162,37.59-21.262c0.185-0.112,0.357-0.2,0.542-0.291
		c0.265-0.112,0.529-0.112,0.795,0c0.158,0.066,0.332,0.179,0.49,0.265c1.683,0.954,3.366,1.934,5.034,2.888
		c0.226,0.132,0.449,0.245,0.663,0.356c0.066,0.042,0.134,0.021,0.199,0c0.136-0.068,0.291-0.157,0.424-0.224
		c2.198-1.265,4.397-2.53,6.595-3.795c3.485-1.997,6.97-3.994,10.453-5.994c0.132-0.087,0.266-0.153,0.423-0.241
		c0.108-0.044,0.2-0.09,0.307-0.137c0.158-0.041,0.317-0.066,0.465,0c0.133,0.046,0.269,0.092,0.382,0.158
		c0.775,0.444,1.551,0.888,2.332,1.312c0.04,0.021,0.065,0.041,0.107,0.066c0.316,0.199,0.463,0.484,0.489,0.842
		c0,0.086,0,0.178,0,0.265c0,0.311,0,0.642,0,0.954C110.094,26.709,110.094,47.256,110.094,67.81z M84.924,40.513
		c0-0.199,0-0.402-0.022-0.622c0-0.066-0.085-0.112-0.15-0.066c-0.134,0.066-0.29,0.132-0.424,0.219
		c-3.527,2.02-7.035,4.04-10.564,6.083c-1.133,0.646-2.265,1.288-3.372,1.951c-0.179,0.113-0.357,0.179-0.556,0.245
		c-0.536,0.133-1.066,0.291-1.576,0.444c-0.332,0.092-0.669,0.092-1.02,0c-0.401-0.111-0.777-0.245-1.179-0.332
		c-0.444-0.112-0.863-0.291-1.265-0.51c-6.878-3.975-13.758-7.923-20.64-11.896c-0.577-0.332-1.153-0.668-1.709-1
		c-0.046-0.021-0.087-0.021-0.132-0.021c-0.046,0-0.087,0.021-0.087,0.066c0,0.245-0.026,0.51-0.026,0.755
		c0,27.386,0,54.752,0,82.135c0,0.199,0,0.424,0,0.623c-0.02,0.224,0.092,0.33,0.267,0.423c0.137,0.066,0.27,0.159,0.422,0.243
		c5.04,2.91,10.075,5.812,15.115,8.725c2.617,1.511,5.213,2.995,7.835,4.505c0.265,0.158,0.53,0.266,0.821,0.332
		c0.312,0.092,0.62,0.179,0.928,0.247c0.113,0.018,0.225,0.044,0.337,0c0.377-0.115,0.755-0.205,1.132-0.313
		c0.2-0.067,0.398-0.133,0.551-0.24c0.112-0.065,0.245-0.133,0.357-0.199c3.107-1.776,6.213-3.576,9.326-5.351
		c0.279-0.184,0.596-0.332,0.887-0.531c0.067-0.05,0.148-0.092,0.24-0.133c0.243-0.091,0.448-0.224,0.662-0.356
		c1.112-0.647,2.226-1.271,3.337-1.908c0.148-0.091,0.307-0.199,0.464-0.291c0.067-0.042,0.087-0.11,0.087-0.179
		c0-0.219,0-0.469,0-0.684c0-5.974,0-11.921,0-17.895c0-0.53,0-1.041,0-1.576c0-0.106,0-0.217-0.02-0.332
		c0-0.04-0.026-0.09-0.067-0.106c-0.117-0.066-0.25-0.118-0.357-0.2c-0.198-0.132-0.331-0.315-0.397-0.535
		c-0.025-0.111-0.047-0.219-0.066-0.337c0-0.146,0-0.306,0-0.483c0-13.029,0-26.079,0-39.107c0-0.153,0-0.312,0-0.49
		c0-0.107,0.02-0.219,0.041-0.332c0.047-0.199,0.158-0.377,0.332-0.51c0.051-0.046,0.117-0.086,0.183-0.112
		c0.067-0.04,0.148-0.106,0.216-0.153c0.068-0.066,0.137-0.133,0.137-0.224c0-0.199,0-0.418,0-0.618c0-3.219,0-6.438,0-9.656
		C84.924,46.947,84.924,43.731,84.924,40.513z M77.533,39.467c-0.016-0.086-0.016-0.176-0.016-0.265c0-0.689,0-1.377,0-2.064
		c0-4.148,0-8.301,0-12.474c0-1.551,0-3.107,0-4.657c0-0.178,0-0.357,0.016-0.556c0-0.112,0.05-0.223,0.117-0.311
		c0.081-0.153,0.198-0.288,0.372-0.398c0.224-0.133,0.423-0.245,0.647-0.377c2.24-1.29,4.454-2.576,6.703-3.862
		c0.133-0.092,0.266-0.158,0.397-0.245c0.088-0.046,0.088-0.113,0.02-0.157c-0.068-0.042-0.111-0.088-0.151-0.109
		c-1.353-0.78-2.688-1.556-4.04-2.311c-0.025-0.02-0.047-0.02-0.067-0.02c-0.132-0.066-0.249-0.089-0.383-0.021
		c-0.331,0.199-0.663,0.376-1.02,0.577c-11.447,6.478-22.899,12.958-34.377,19.44c-0.729,0.422-1.464,0.821-2.194,1.242
		c-0.066,0.023-0.112,0.09-0.158,0.135c-0.044,0.041-0.044,0.087,0,0.107c0.132,0.092,0.265,0.179,0.4,0.245
		c7.144,4.127,14.316,8.259,21.464,12.364c0.308,0.174,0.642,0.353,0.954,0.532c0.377,0.112,0.755,0.199,1.132,0.311
		c0.087,0.021,0.174,0.046,0.266,0.066c0.087,0.021,0.179,0.021,0.265,0c0.312-0.089,0.623-0.157,0.934-0.245
		c0.332-0.087,0.643-0.22,0.928-0.398c2.423-1.398,4.819-2.775,7.234-4.173c0.132-0.092,0.269-0.158,0.405-0.245
		C77.716,40.931,77.689,40.201,77.533,39.467z M107.986,7.911c0-0.245,0-0.51,0-0.755c0-0.066-0.025-0.133-0.025-0.199
		c0-0.046-0.106-0.112-0.158-0.092c-0.199,0.112-0.397,0.225-0.597,0.332c-6.055,3.486-12.095,6.948-18.149,10.432
		c-2.173,1.245-4.357,2.487-6.53,3.752c-0.106,0.068-0.239,0.136-0.357,0.222c-0.04,0.046-0.106,0.087-0.106,0.154
		c0,0.177,0,0.356,0,0.555c0,1.357,0,2.688,0,4.04c0,3.795,0,7.591,0,11.366c0,0.219,0,0.464,0.025,0.685
		c0,0.045,0.041,0.068,0.106,0.068c0.067,0,0.133-0.023,0.178-0.068c0.869-0.512,1.73-0.996,2.618-1.506
		c0.158-0.092,0.316-0.178,0.464-0.271c0.159-0.087,0.358-0.133,0.541-0.133c0.398,0.026,0.684,0.2,0.889,0.556
		c0.039,0.112,0.106,0.199,0.106,0.311c0,0.245,0.025,0.511,0.025,0.755c0,6.988,0,13.982,0,20.951c0,0.178,0,0.356,0,0.556
		c0,0.041,0,0.086,0.016,0.132c0.024,0.021,0.091,0.066,0.117,0.066c0.214-0.066,0.398-0.199,0.597-0.311
		c5.233-3.02,10.479-6.014,15.712-9.034c0.158-0.087,0.312-0.179,0.464-0.265c0.132-0.087,0.291-0.133,0.449-0.153
		c0.065-0.025,0.133-0.025,0.198,0c0.108,0.021,0.226,0.041,0.332,0.087c0.332,0.153,0.557,0.423,0.577,0.775
		c0.02,0.245,0.02,0.51,0.02,0.754c0,12.519,0,25.037,0,37.53c0,0.158,0,0.313,0,0.49c0,0.092,0,0.172-0.02,0.265
		c0,0.092-0.047,0.174-0.088,0.266c-0.092,0.158-0.198,0.316-0.356,0.397c-0.107,0.066-0.239,0.133-0.356,0.198
		c-3.975,2.292-7.949,4.576-11.914,6.862c-1.732,0.995-3.486,1.999-5.216,2.995c-0.159,0.091-0.333,0.184-0.465,0.291
		c-0.051,0.025-0.066,0.064-0.066,0.106c0,0.224-0.025,0.474-0.025,0.688c0,7.259,0,14.519,0,21.776c0,0.267,0,0.557,0,0.822
		c0,0.107,0,0.224-0.025,0.331c0,0.066-0.016,0.133-0.042,0.199c-0.092,0.225-0.244,0.398-0.447,0.514
		c-0.108,0.067-0.241,0.135-0.348,0.201c-1.158,0.662-2.291,1.303-3.443,1.974c-0.756,0.438-0.622,0.218-0.622,1.106
		c0,5.107,0,10.233,0,15.335c0,0.133,0,0.266,0,0.424c0,0.065,0,0.133,0,0.198c0,0.092,0.106,0.158,0.199,0.107
		c0.198-0.107,0.397-0.214,0.596-0.332c7.308-4.187,14.611-8.387,21.911-12.585c0.912-0.53,1.815-1.034,2.729-1.575
		c0.106-0.067,0.239-0.133,0.357-0.2c0.084-0.04,0.132-0.132,0.132-0.213c0-0.251,0-0.516,0-0.755c0-20.242,0-40.463,0-60.706
		C107.986,48.28,107.986,28.107,107.986,7.911z M86.128,98.172c0,0.226,0,0.465,0,0.689c0,0.04,0,0.09,0.015,0.132
		c0.026,0.025,0.067,0.041,0.117,0.067c0.2-0.109,0.398-0.226,0.598-0.333c3.815-2.198,7.632-4.396,11.447-6.595
		c1.535-0.889,3.087-1.775,4.644-2.664c0.111-0.065,0.243-0.132,0.351-0.224c0.092-0.041,0.133-0.106,0.133-0.214
		c0-0.226,0-0.471,0-0.688c0-11.499,0-23.018,0-34.516c0-0.153,0-0.312,0-0.489c0-0.067,0-0.134,0-0.2
		c0-0.107-0.082-0.176-0.174-0.132c-0.106,0.066-0.241,0.132-0.357,0.199c-4.968,2.867-9.922,5.705-14.891,8.57
		c-0.597,0.332-1.179,0.689-1.8,0.998c-0.041,0.023-0.067,0.068-0.067,0.109c-0.04,0.225-0.015,0.47-0.015,0.689
		c0,5.77,0,11.564,0,17.334C86.128,86.648,86.128,92.397,86.128,98.172z"/>
	<path fill="#010101" d="M80.261,19.781c-0.014-0.245,0.118-0.398,0.291-0.51c0.043-0.044,0.111-0.066,0.18-0.112
		c0.152-0.086,0.336-0.153,0.47-0.285c0.065-0.066,0.146-0.091,0.238-0.133c0.159-0.092,0.332-0.158,0.464-0.291
		c0.093-0.066,0.199-0.111,0.291-0.179c0.093-0.066,0.199-0.107,0.291-0.173c0.133-0.112,0.266-0.179,0.397-0.245
		c0.159-0.092,0.333-0.158,0.49-0.245c0.134-0.066,0.29-0.132,0.398-0.245c0.065-0.066,0.157-0.087,0.241-0.132
		c0.157-0.089,0.34-0.157,0.473-0.291c0.082-0.066,0.199-0.107,0.28-0.174c0.25-0.137,0.49-0.245,0.714-0.402
		c0.092-0.067,0.199-0.11,0.291-0.153c0.225-0.113,0.439-0.225,0.638-0.378c0.066-0.066,0.158-0.091,0.25-0.132
		c0.089-0.046,0.173-0.066,0.24-0.133c0.25-0.203,0.556-0.337,0.82-0.469c0.199-0.109,0.424-0.199,0.601-0.352
		c0.048-0.046,0.114-0.066,0.181-0.112c0.173-0.09,0.356-0.199,0.53-0.311c0.133-0.087,0.291-0.133,0.424-0.223
		c0.356-0.267,0.755-0.42,1.126-0.619c0.093-0.046,0.159-0.092,0.252-0.133c0.132-0.112,0.265-0.178,0.397-0.244
		c0.025,0,0.04-0.026,0.066-0.026c0.173-0.107,0.356-0.219,0.529-0.311c0.185-0.107,0.358-0.173,0.557-0.286
		c0.313-0.265,0.714-0.424,1.064-0.602c0.247-0.132,0.472-0.286,0.685-0.444c0.117-0.066,0.226-0.153,0.358-0.22
		c0.266-0.132,0.53-0.245,0.78-0.443c0.041-0.022,0.091-0.046,0.106-0.066c0.185-0.092,0.357-0.199,0.531-0.312
		c0.157-0.112,0.316-0.178,0.49-0.265c0.265-0.132,0.535-0.245,0.78-0.443c0.04-0.026,0.065-0.046,0.106-0.066
		c0.199-0.112,0.4-0.202,0.582-0.357c0.066-0.066,0.158-0.086,0.239-0.132c0.092-0.046,0.199-0.112,0.291-0.179
		c0.133-0.112,0.313-0.199,0.463-0.286c0.185-0.092,0.384-0.178,0.557-0.291c0.183-0.086,0.358-0.222,0.531-0.311
		c0.157-0.086,0.335-0.153,0.472-0.287c0.044-0.044,0.109-0.068,0.176-0.111c0.306-0.159,0.623-0.291,0.888-0.51
		c0.066-0.066,0.158-0.092,0.239-0.133c0.226-0.112,0.45-0.203,0.649-0.377c0.065-0.066,0.157-0.092,0.238-0.133
		c0.092-0.045,0.185-0.068,0.251-0.137c0.265-0.22,0.571-0.352,0.887-0.511c0.174-0.087,0.373-0.173,0.531-0.31
		c0.04-0.042,0.107-0.068,0.174-0.108c0.068-0.025,0.137-0.066,0.183-0.092c0.174-0.107,0.357-0.219,0.531-0.312
		c0.175-0.107,0.38-0.173,0.556-0.286c0.239-0.178,0.508-0.311,0.781-0.444c0.106-0.045,0.214-0.066,0.331-0.066
		c0.266-0.026,0.439,0.111,0.571,0.311c0.092,0.132,0.092,0.398-0.015,0.51c-0.159,0.178-0.316,0.332-0.517,0.443
		c-0.157,0.066-0.331,0.153-0.463,0.286c-0.045,0.026-0.067,0.066-0.113,0.066c-0.204,0.112-0.418,0.203-0.602,0.312
		c-0.199,0.112-0.372,0.268-0.571,0.357c-0.225,0.086-0.383,0.265-0.581,0.355c-0.174,0.089-0.373,0.155-0.556,0.288
		c-0.241,0.178-0.507,0.311-0.771,0.443c-0.117,0.066-0.25,0.133-0.356,0.225c-0.092,0.066-0.199,0.107-0.291,0.173
		c-0.092,0.046-0.174,0.067-0.24,0.135c-0.249,0.202-0.556,0.334-0.82,0.467c-0.201,0.112-0.424,0.199-0.608,0.353
		c-0.04,0.044-0.106,0.068-0.172,0.111c-0.174,0.092-0.358,0.199-0.531,0.311c-0.132,0.091-0.291,0.132-0.423,0.225
		c-0.358,0.265-0.756,0.418-1.133,0.618c-0.087,0.045-0.153,0.091-0.245,0.137c-0.133,0.107-0.265,0.173-0.398,0.24
		c-0.025,0-0.04,0.026-0.065,0.026c-0.18,0.11-0.357,0.219-0.531,0.311c-0.184,0.107-0.356,0.176-0.557,0.286
		c-0.265,0.225-0.581,0.357-0.887,0.511c-0.066,0.025-0.132,0.066-0.185,0.112c-0.132,0.112-0.306,0.199-0.463,0.291
		c-0.087,0.041-0.155,0.086-0.24,0.133c-0.133,0.108-0.315,0.199-0.464,0.285c-0.185,0.092-0.383,0.179-0.557,0.291
		c-0.184,0.086-0.356,0.219-0.535,0.312c-0.153,0.086-0.338,0.152-0.47,0.285c-0.04,0.046-0.106,0.066-0.173,0.112
		c-0.314,0.156-0.623,0.291-0.888,0.51c-0.042,0.046-0.11,0.066-0.179,0.091c-0.152,0.088-0.337,0.155-0.484,0.241
		c-0.133,0.067-0.25,0.204-0.404,0.271c-0.218,0.199-0.482,0.309-0.752,0.444c-0.247,0.132-0.513,0.219-0.711,0.397
		c-0.066,0.066-0.158,0.087-0.246,0.133c-0.137,0.066-0.284,0.133-0.402,0.245c-0.04,0.046-0.106,0.066-0.173,0.113
		c-0.313,0.152-0.623,0.285-0.888,0.51c-0.066,0.066-0.159,0.087-0.246,0.133c-0.218,0.112-0.443,0.199-0.642,0.377
		c-0.066,0.066-0.158,0.086-0.247,0.133c-0.085,0.046-0.177,0.066-0.243,0.132c-0.265,0.221-0.577,0.357-0.888,0.51
		c-0.173,0.087-0.373,0.179-0.529,0.311c-0.049,0.046-0.117,0.066-0.185,0.112c-0.173,0.087-0.347,0.176-0.531,0.311
		c-0.085,0.066-0.198,0.107-0.29,0.153c-0.107,0.066-0.239,0.133-0.346,0.225c-0.092,0.066-0.201,0.106-0.291,0.173
		c-0.2,0.113-0.398,0.203-0.598,0.312c-0.118,0.046-0.201,0.112-0.29,0.178c-0.116,0.089-0.226,0.133-0.357,0.199
		c-0.107,0.066-0.24,0.132-0.357,0.225c-0.222,0.178-0.465,0.286-0.729,0.377c-0.158,0.041-0.313,0.021-0.449-0.091
		C80.354,20.159,80.247,20.006,80.261,19.781z"/>
	<path fill="#010101" d="M80.261,30.213c0,2.55,0,5.106,0,7.657c0,0.199,0,0.397,0,0.622c0,0.199-0.106,0.332-0.239,0.464
		c-0.158,0.132-0.424,0.132-0.582,0c-0.04-0.042-0.106-0.087-0.146-0.133c-0.067-0.066-0.118-0.153-0.118-0.245
		c0-0.177-0.016-0.352-0.016-0.553c0-1.554,0-3.109,0-4.66c0-0.178,0-0.357,0-0.556c0-0.112-0.025-0.219-0.068-0.332
		c-0.049-0.132-0.068-0.265-0.068-0.399c0-0.157,0-0.309,0-0.488c0-3.066,0-6.106,0-9.167c0-0.154,0-0.311,0-0.49
		c0-0.177,0.068-0.311,0.178-0.417c0.067-0.067,0.133-0.136,0.199-0.179c0.159-0.132,0.331-0.132,0.489,0.021
		c0.067,0.066,0.133,0.133,0.199,0.199c0.092,0.112,0.159,0.225,0.159,0.377c0,0.199,0,0.404,0,0.623
		C80.261,25.107,80.261,27.663,80.261,30.213L80.261,30.213z"/>
	<path fill="#010101" d="M79.175,136.896c0-2.412,0-4.835,0-7.251c0-0.205,0-0.406,0.025-0.62c0-0.092,0.041-0.185,0.106-0.249
		c0.118-0.156,0.266-0.24,0.468-0.24c0.221,0,0.405,0.066,0.538,0.24c0.066,0.064,0.081,0.157,0.107,0.249c0,0.174,0,0.347,0,0.552
		c0,2.643,0,5.305,0,7.942c0,2.158,0,4.29,0,6.438c0,0.181,0,0.356,0,0.556c-0.026,0.333-0.159,0.623-0.44,0.822
		c-0.091,0.065-0.249,0.065-0.341,0.025c-0.016-0.025-0.041-0.025-0.066-0.052c-0.081-0.081-0.198-0.173-0.279-0.282
		c-0.067-0.068-0.118-0.156-0.118-0.248c0-0.174,0-0.357,0-0.557C79.175,141.783,79.175,139.345,79.175,136.896z"/>
	<path fill="#010101" d="M77.382,41.62c0-0.621,0.018-1.22,0.084-1.842c0-0.112,0.025-0.219,0.067-0.332
		c0.065-0.066,0.132-0.132,0.132-0.225c0-0.219,0-0.464,0.024-0.684c0-0.068,0-0.137,0.026-0.204
		c0.041-0.107,0.107-0.199,0.239-0.219c0.133-0.046,0.266-0.046,0.397,0c0.067,0.021,0.133,0.046,0.185,0.112
		c0.133,0.174,0.239,0.377,0.239,0.619c0,0.269,0,0.554,0.026,0.82c0,0.068,0.04,0.137,0.083,0.178
		c0.137,0.112,0.273,0.178,0.446,0.178c0.107,0,0.227,0,0.333,0.021c0.092,0,0.178,0.067,0.246,0.112
		c0.203,0.158,0.243,0.377,0.218,0.602c-0.015,0.219-0.173,0.352-0.354,0.464c-0.068,0.021-0.136,0.046-0.202,0.046
		c-0.198,0.02-0.397-0.026-0.618,0.02c-0.068,0.021-0.137,0.066-0.151,0.132c0,0.023-0.026,0.046-0.026,0.066
		c0,0.046-0.025,0.092-0.025,0.133c0,0.224-0.081,0.403-0.199,0.576c-0.066,0.092-0.132,0.178-0.238,0.245
		c-0.111,0.066-0.248,0.132-0.383,0.179c-0.082,0.021-0.174,0.021-0.266-0.046c-0.041-0.041-0.107-0.086-0.147-0.132
		c-0.093-0.086-0.136-0.177-0.136-0.311C77.382,41.957,77.382,41.798,77.382,41.62z"/>
	<path fill="#0A0C0D" d="M100.569,20.914c0,0.643-0.15,1.444-0.423,2.219c-0.479,1.49-1.287,2.821-2.348,3.954
		c-0.383,0.398-0.798,0.754-1.245,1.062c-0.355,0.244-0.728,0.469-1.126,0.622c-0.673,0.291-1.336,0.424-2.066,0.403
		c-0.735-0.026-1.403-0.225-2.025-0.581c-0.132-0.088-0.265-0.175-0.372-0.287c-0.582-0.534-1.004-1.179-1.219-1.934
		c-0.265-0.841-0.317-1.683-0.199-2.571c0.28-2.353,1.591-4.418,2.744-5.617c0.424-0.444,0.913-0.842,1.429-1.179
		c0.571-0.376,1.193-0.663,1.856-0.795c0.133-0.025,0.266-0.066,0.4-0.066c0.313-0.046,0.646-0.046,0.957-0.026
		c0.51,0.026,0.974,0.179,1.438,0.378c0.135,0.066,0.251,0.133,0.357,0.202c0.888,0.645,1.419,1.507,1.691,2.573
		C100.555,19.781,100.569,20.25,100.569,20.914z M98.355,19.628c-0.158-0.469-0.397-0.867-0.806-1.178
		c-0.042-0.021-0.066-0.066-0.107-0.066c-0.133-0.045-0.239-0.113-0.373-0.133c-0.356-0.066-0.739-0.066-1.094,0.02
		c-0.44,0.113-0.839,0.312-1.236,0.58c-0.357,0.241-0.689,0.532-0.98,0.843c-0.887,0.954-1.535,2.041-1.934,3.285
		c-0.156,0.486-0.224,0.975-0.265,1.484c-0.026,0.291,0.026,0.602,0.066,0.888c0.066,0.49,0.266,0.914,0.581,1.291
		c0.107,0.132,0.241,0.219,0.373,0.286c0.489,0.225,1.002,0.265,1.535,0.132c0.424-0.109,0.796-0.311,1.176-0.553
		c0.416-0.289,0.799-0.62,1.13-0.997c0.796-0.888,1.377-1.888,1.75-3c0.198-0.577,0.333-1.173,0.333-1.841
		C98.505,20.337,98.462,19.98,98.355,19.628z"/>
	<path fill="#0A0C0D" d="M100.569,127.184c0,0.752-0.15,1.55-0.423,2.324c-0.479,1.492-1.287,2.817-2.373,3.954
		c-0.357,0.373-0.755,0.73-1.193,1.021c-0.356,0.239-0.739,0.464-1.137,0.638c-0.704,0.316-1.444,0.448-2.199,0.423
		c-0.465-0.021-0.903-0.132-1.326-0.291c-0.556-0.198-1.001-0.53-1.377-0.993c-0.513-0.649-0.848-1.353-0.995-2.154
		c-0.092-0.51-0.133-1.04-0.092-1.572c0.04-0.58,0.158-1.137,0.306-1.692c0.449-1.509,1.204-2.862,2.265-4.015
		c0.465-0.514,0.98-0.979,1.536-1.352c0.464-0.317,0.979-0.582,1.526-0.754c0.687-0.252,1.376-0.291,2.091-0.199
		c0.423,0.04,0.847,0.173,1.245,0.371c0.106,0.052,0.198,0.118,0.287,0.185c0.889,0.637,1.437,1.509,1.686,2.57
		C100.555,126.204,100.569,126.495,100.569,127.184z M98.355,126.005c-0.117-0.397-0.316-0.755-0.622-1.046
		c-0.158-0.133-0.332-0.239-0.53-0.306c-0.384-0.135-0.756-0.135-1.159-0.052c-0.443,0.118-0.866,0.291-1.239,0.557
		c-0.383,0.248-0.739,0.556-1.046,0.887c-0.729,0.78-1.284,1.643-1.708,2.623c-0.265,0.663-0.449,1.325-0.517,2.041
		c-0.014,0.224-0.014,0.463,0.026,0.688c0.026,0.106,0.041,0.224,0.041,0.33c0.067,0.465,0.272,0.862,0.557,1.22
		c0.117,0.159,0.265,0.25,0.448,0.332c0.266,0.118,0.556,0.183,0.861,0.183c0.266,0,0.531-0.05,0.799-0.132
		c0.381-0.133,0.712-0.315,1.044-0.515c0.423-0.291,0.802-0.623,1.137-0.995c0.889-1.005,1.511-2.133,1.842-3.402
		c0.107-0.439,0.199-0.888,0.199-1.327C98.505,126.708,98.462,126.362,98.355,126.005z"/>
	<rect x="65.815" y="47.835" fill="#231F20" width="2.219" height="85.642"/>
</g>
</svg>
