<?xml version="1.0" encoding="utf-8"?>
<!-- Generator: Adobe Illustrator 16.0.0, SVG Export Plug-In . SVG Version: 6.00 Build 0)  -->
<!DOCTYPE svg PUBLIC "-//W3C//DTD SVG 1.1//EN" "http://www.w3.org/Graphics/SVG/1.1/DTD/svg11.dtd">
<svg version="1.1" id="Layer_1" xmlns="http://www.w3.org/2000/svg" xmlns:xlink="http://www.w3.org/1999/xlink" x="0px" y="0px"
	 width="500px" height="250px" viewBox="0 0 500 250" enable-background="new 0 0 500 250" xml:space="preserve">
<g>
	<path fill-rule="evenodd" clip-rule="evenodd" d="M495.42,19.968c0,70.465,0,139.667,0,209.914c-3.59,0-6.604,0-9.617,0
		c-156.475-0.003-312.948-0.067-469.421,0.179c-8.343,0.014-11.017-1.776-10.961-10.622c0.404-63.423,0.35-126.851,0.042-190.273
		c-0.038-7.616,2.23-9.36,9.557-9.351c157.315,0.204,314.629,0.154,471.943,0.154C489.459,19.968,491.956,19.968,495.42,19.968z
		 M435.775,23.521c-124.093,0-247.421,0-370.394,0c0,68.246,0,135.743,0,203.092c123.825,0,246.902,0,370.394,0
		C435.775,158.699,435.775,91.395,435.775,23.521z M492.989,23.223c-18.396,0-35.982,0-53.792,0c0,68.094,0,135.74,0,203.365
		c18.229,0,35.795,0,53.792,0C492.989,158.685,492.989,91.422,492.989,23.223z M8.705,226.61c18.396,0,35.694,0,53.173,0
		c0-68.091,0-135.564,0-203.11c-18.063,0-35.59,0-53.173,0C8.705,91.517,8.705,158.809,8.705,226.61z"/>
	<path fill-rule="evenodd" clip-rule="evenodd" d="M375.709,35.13c17.754,0,34.764,0,52.212,0c0,17.415,0,34.422,0,52.053
		c-17.322,0-34.521,0-52.212,0C375.709,69.9,375.709,52.879,375.709,35.13z M415.098,59.985c0.075-7.291-5.966-13.482-13.221-13.546
		c-7.154-0.062-13.51,6.162-13.576,13.299c-0.067,7.125,6.197,13.541,13.314,13.635C408.717,73.467,415.024,67.204,415.098,59.985z"
		/>
	<path fill-rule="evenodd" clip-rule="evenodd" d="M142.914,48.362c-0.008,1.962,0.041,3.924-0.017,5.884
		c-0.15,4.965-2.696,8.804-7.603,7.622c-2.758-0.662-5.473-4.657-6.667-7.744c-1.131-2.927-0.195-6.631-0.273-9.991
		c-0.119-5.138,1.586-9.194,7.297-9.188c5.724,0.003,7.402,4.109,7.278,9.218C142.895,45.562,142.924,46.963,142.914,48.362z"/>
	<path fill-rule="evenodd" clip-rule="evenodd" d="M489.161,56.2c-3.707,2.472-7.219,6.561-11.169,7.04
		c-6.073,0.739-9.739-3.799-9.393-10.079c0.331-5.956,4.501-9.802,9.974-8.653c3.938,0.828,7.163,5.052,10.709,7.76
		C489.241,53.578,489.2,54.889,489.161,56.2z M488.857,53.577c-5.329-3.267-8.412-6.634-11.271-6.454
		c-2.395,0.152-6.393,4.532-6.277,6.872c0.124,2.52,4.184,6.735,6.573,6.768C480.751,60.8,483.668,57.203,488.857,53.577z"/>
	<path fill-rule="evenodd" clip-rule="evenodd" d="M12.131,51.568c3.706-2.491,7.198-6.546,11.171-7.094
		c5.47-0.754,9.484,3.26,9.423,9.292c-0.064,6.314-4.001,10.582-10.007,9.468c-3.917-0.728-7.169-5.032-10.719-7.734
		C12.042,54.19,12.086,52.879,12.131,51.568z M33.524,53.875c-4.708-3.392-7.731-7.194-9.959-6.773
		c-2.93,0.553-5.234,4.427-7.808,6.874c2.365,2.419,4.672,6.69,7.114,6.77C25.698,60.838,28.643,57.24,33.524,53.875z"/>
	<path fill-rule="evenodd" clip-rule="evenodd" d="M38.01,197.656c6-7.666,12.916,1.033,19.384-0.73
		C51.504,203.651,44.317,194.884,38.01,197.656z"/>
	<path fill-rule="evenodd" clip-rule="evenodd" fill="#FFFFFF" d="M415.098,59.985c-0.073,7.219-6.381,13.481-13.482,13.387
		c-7.117-0.094-13.382-6.509-13.314-13.635c0.066-7.137,6.422-13.361,13.576-13.299C409.132,46.503,415.173,52.695,415.098,59.985z"
		/>
	<text transform="matrix(1 0 0 1 124.4897 154.7236)"><tspan x="0" y="0" font-family="'MyriadHebrew-Bold'" font-size="28.2041">Z-StrikeLock</tspan><tspan x="0" y="33.845" font-family="'MyriadHebrew-Bold'" font-size="28.2041">Control</tspan></text>
	<text transform="matrix(1 0 0 1 299.1836 62.3135)"><tspan x="0" y="0" font-family="'MyriadHebrew-Regular'" font-size="18.8027">Z-Wave</tspan><tspan x="0" y="22.563" font-family="'MyriadHebrew-Regular'" font-size="18.8027">Button</tspan></text>
	<path fill-rule="evenodd" clip-rule="evenodd" d="M12.007,96.709c3.706-2.49,7.198-6.546,11.171-7.093
		c5.469-0.754,9.484,3.26,9.422,9.292c-0.064,6.314-4,10.581-10.006,9.468c-3.917-0.728-7.169-5.034-10.719-7.734
		C11.918,99.332,11.962,98.021,12.007,96.709z M33.399,99.018c-4.706-3.393-7.73-7.194-9.958-6.773
		c-2.93,0.553-5.234,4.426-7.807,6.873c2.365,2.419,4.672,6.691,7.114,6.769C25.574,105.98,28.519,102.383,33.399,99.018z"/>
	<path fill-rule="evenodd" clip-rule="evenodd" d="M12.193,149.516c3.706-2.493,7.198-6.546,11.171-7.095
		c5.47-0.755,9.484,3.262,9.422,9.293c-0.064,6.313-4.001,10.581-10.006,9.466c-3.917-0.725-7.169-5.031-10.719-7.732
		C12.104,152.137,12.148,150.826,12.193,149.516z M33.585,151.822c-4.706-3.393-7.73-7.195-9.958-6.773
		c-2.93,0.553-5.234,4.425-7.808,6.872c2.365,2.419,4.672,6.693,7.114,6.771C25.76,158.783,28.705,155.187,33.585,151.822z"/>
	<path fill-rule="evenodd" clip-rule="evenodd" d="M12.069,194.658c3.706-2.492,7.198-6.546,11.171-7.097
		c5.469-0.753,9.484,3.264,9.422,9.296c-0.064,6.312-4,10.581-10.006,9.466c-3.917-0.726-7.169-5.031-10.719-7.735
		C11.98,197.279,12.024,195.967,12.069,194.658z M33.461,196.963c-4.706-3.393-7.73-7.193-9.958-6.771
		c-2.93,0.551-5.234,4.425-7.808,6.871c2.365,2.42,4.672,6.693,7.114,6.771C25.636,203.927,28.581,200.332,33.461,196.963z"/>
	<path fill-rule="evenodd" clip-rule="evenodd" d="M38.01,152.513c6-7.666,12.916,1.033,19.384-0.729
		C51.504,158.508,44.317,149.74,38.01,152.513z"/>
	<text transform="matrix(1 0 0 1 32.313 60.7627)" font-family="'MyriadHebrew-Bold'" font-size="28.2041">+</text>
	<text transform="matrix(1 0 0 1 35.6636 106.6211)" font-family="'MyriadHebrew-Bold'" font-size="28.2041">-</text>
	<path fill-rule="evenodd" clip-rule="evenodd" d="M489.161,154.229c-3.707,2.475-7.219,6.561-11.169,7.042
		c-6.073,0.739-9.739-3.801-9.393-10.08c0.331-5.954,4.501-9.801,9.974-8.653c3.938,0.828,7.163,5.054,10.709,7.763
		C489.241,151.608,489.2,152.922,489.161,154.229z M488.857,151.608c-5.329-3.269-8.412-6.633-11.271-6.454
		c-2.395,0.151-6.393,4.531-6.277,6.872c0.124,2.521,4.184,6.734,6.573,6.767C480.751,158.829,483.668,155.235,488.857,151.608z"/>
	<path fill-rule="evenodd" clip-rule="evenodd" d="M489.158,101.425c-3.704,2.474-7.216,6.56-11.168,7.042
		c-6.073,0.739-9.737-3.801-9.393-10.081c0.33-5.954,4.503-9.801,9.976-8.653c3.938,0.828,7.161,5.054,10.709,7.762
		C489.241,98.804,489.2,100.117,489.158,101.425z M488.855,98.804c-5.329-3.269-8.41-6.633-11.27-6.455
		c-2.396,0.152-6.395,4.531-6.28,6.872c0.124,2.521,4.187,6.734,6.574,6.767C480.749,106.025,483.668,102.431,488.855,98.804z"/>
	<path fill-rule="evenodd" clip-rule="evenodd" d="M489.161,199.373c-3.707,2.475-7.219,6.56-11.169,7.042
		c-6.073,0.739-9.739-3.801-9.393-10.081c0.331-5.954,4.501-9.801,9.974-8.653c3.938,0.826,7.163,5.055,10.709,7.763
		C489.241,196.752,489.2,198.064,489.161,199.373z M488.857,196.752c-5.329-3.269-8.412-6.634-11.271-6.454
		c-2.395,0.151-6.393,4.53-6.277,6.872c0.124,2.52,4.184,6.733,6.573,6.766C480.751,203.973,483.668,200.378,488.857,196.752z"/>
	<text transform="matrix(1 0 0 1 447.29 61.1563)" font-family="'MyriadHebrew-Regular'" font-size="18.8027">IN</text>
	<line fill="none" stroke="#000000" stroke-miterlimit="10" x1="465.859" y1="99.038" x2="444.339" y2="99.039"/>
	<line fill="none" stroke="#000000" stroke-miterlimit="10" x1="465.859" y1="196.986" x2="444.339" y2="196.986"/>
	<line fill="none" stroke="#000000" stroke-miterlimit="10" x1="465.859" y1="151.843" x2="444.339" y2="139.111"/>
	<line fill="none" stroke="#000000" stroke-miterlimit="10" x1="444.339" y1="99.039" x2="444.339" y2="131.094"/>
	<line fill="none" stroke="#000000" stroke-miterlimit="10" x1="444.339" y1="196.986" x2="444.339" y2="157.678"/>
</g>
</svg>
